<?xml version="1.0" encoding="UTF-8"?>
<svg version="1.1" xmlns="http://www.w3.org/2000/svg" width="64" height="64">
<path d="M0 0 C2.64 0 5.28 0 8 0 C8 0.66 8 1.32 8 2 C8.556875 1.731875 9.11375 1.46375 9.6875 1.1875 C12 1 12 1 14.75 3.3125 C17 6 17 6 17 8 C17.91523437 7.97679687 18.83046875 7.95359375 19.7734375 7.9296875 C20.96195313 7.91164063 22.15046875 7.89359375 23.375 7.875 C24.55835938 7.85179687 25.74171875 7.82859375 26.9609375 7.8046875 C30 8 30 8 32 10 C32.24050903 11.83499146 32.24050903 11.83499146 32.22705078 14.08251953 C32.22689972 14.92324005 32.22674866 15.76396057 32.22659302 16.63015747 C32.21627045 17.53853363 32.20594788 18.44690979 32.1953125 19.3828125 C32.1924826 20.31221649 32.18965271 21.24162048 32.18673706 22.19918823 C32.17552069 25.1745885 32.1504136 28.14969035 32.125 31.125 C32.11497208 33.13931858 32.1058459 35.15364186 32.09765625 37.16796875 C32.07557661 42.11209456 32.04103693 47.05599665 32 52 C32.99 52 33.98 52 35 52 C35 55.3 35 58.6 35 62 C14.54 62 -5.92 62 -27 62 C-27 58.7 -27 55.4 -27 52 C-26.01 52 -25.02 52 -24 52 C-24.01047363 50.73816895 -24.02094727 49.47633789 -24.03173828 48.17626953 C-24.06786899 43.50605086 -24.09087516 38.83584461 -24.10986328 34.16552734 C-24.11993671 32.14206873 -24.13359595 30.11862472 -24.15087891 28.09521484 C-24.17506847 25.19104411 -24.18646949 22.28706539 -24.1953125 19.3828125 C-24.20563507 18.47443634 -24.21595764 17.56606018 -24.22659302 16.63015747 C-24.22674408 15.78943695 -24.22689514 14.94871643 -24.22705078 14.08251953 C-24.231492 13.34083527 -24.23593323 12.599151 -24.24050903 11.83499146 C-24 10 -24 10 -22 8 C-18.9609375 7.8046875 -18.9609375 7.8046875 -15.375 7.875 C-13.59222656 7.90207031 -13.59222656 7.90207031 -11.7734375 7.9296875 C-10.85820312 7.95289063 -9.94296875 7.97609375 -9 8 C-8.69835937 7.37738281 -8.39671875 6.75476563 -8.0859375 6.11328125 C-6.93711673 3.87762645 -6.03257836 2.48534573 -4 1 C-1.8125 1.3125 -1.8125 1.3125 0 2 C0 1.34 0 0.68 0 0 Z " fill="#010101" transform="translate(28,1)"/>
<path d="M0 0 C2.64 0 5.28 0 8 0 C8 1.32 8 2.64 8 4 C8.99 4 9.98 4 11 4 C11.12375 5.175625 11.12375 5.175625 11.25 6.375 C11.73044197 9.11983754 11.73044197 9.11983754 13.9375 10.3125 C15.95388345 11.10540926 15.95388345 11.10540926 18 11 C18 11.99 18 12.98 18 14 C20.64 14 23.28 14 26 14 C26 13.01 26 12.02 26 11 C27.175625 10.87625 27.175625 10.87625 28.375 10.75 C31.11983754 10.26955803 31.11983754 10.26955803 32.3125 8.0625 C33.10540926 6.04611655 33.10540926 6.04611655 33 4 C33.99 4 34.98 4 36 4 C36 2.68 36 1.36 36 0 C38.64 0 41.28 0 44 0 C44 11.22 44 22.44 44 34 C29.48 34 14.96 34 0 34 C0 22.78 0 11.56 0 0 Z " fill="#E2E7F6" transform="translate(10,15)"/>
<path d="M0 0 C2.64 0 5.28 0 8 0 C8 1.32 8 2.64 8 4 C8.99 4 9.98 4 11 4 C11.12375 5.175625 11.12375 5.175625 11.25 6.375 C11.73044197 9.11983754 11.73044197 9.11983754 13.9375 10.3125 C15.95388345 11.10540926 15.95388345 11.10540926 18 11 C18 11.99 18 12.98 18 14 C20.64 14 23.28 14 26 14 C26 13.01 26 12.02 26 11 C27.175625 10.87625 27.175625 10.87625 28.375 10.75 C31.11983754 10.26955803 31.11983754 10.26955803 32.3125 8.0625 C33.10540926 6.04611655 33.10540926 6.04611655 33 4 C33.99 4 34.98 4 36 4 C36 2.68 36 1.36 36 0 C37.32 0 38.64 0 40 0 C40 3.96 40 7.92 40 12 C38.35 12 36.7 12 35 12 C35 18.27 35 24.54 35 31 C34.34 31 33.68 31 33 31 C33 26.05 33 21.1 33 16 C31.02 16 29.04 16 27 16 C27 20.95 27 25.9 27 31 C26.34 31 25.68 31 25 31 C25 26.71 25 22.42 25 18 C23.02 18 21.04 18 19 18 C19 22.29 19 26.58 19 31 C18.34 31 17.68 31 17 31 C17 28.03 17 25.06 17 22 C15.02 22 13.04 22 11 22 C11 24.97 11 27.94 11 31 C10.34 31 9.68 31 9 31 C9 28.69 9 26.38 9 24 C7.02 24 5.04 24 3 24 C3 26.31 3 28.62 3 31 C2.01 31 1.02 31 0 31 C0 20.77 0 10.54 0 0 Z " fill="#F4F7FA" transform="translate(10,15)"/>
<path d="M0 0 C1.32 0 2.64 0 4 0 C4.33 0.66 4.66 1.32 5 2 C6.97888961 2.72693904 8.97954558 3.39816251 11 4 C11.12375 4.804375 11.2475 5.60875 11.375 6.4375 C11.58125 7.283125 11.7875 8.12875 12 9 C12.66 9.33 13.32 9.66 14 10 C14 11.32 14 12.64 14 14 C13.01 14.495 13.01 14.495 12 15 C11.27306096 16.97888961 10.60183749 18.97954558 10 21 C9.195625 21.12375 8.39125 21.2475 7.5625 21.375 C6.716875 21.58125 5.87125 21.7875 5 22 C4.67 22.66 4.34 23.32 4 24 C2.68 24 1.36 24 0 24 C-0.33 23.34 -0.66 22.68 -1 22 C-2.97888961 21.27306096 -4.97954558 20.60183749 -7 20 C-7.12375 19.195625 -7.2475 18.39125 -7.375 17.5625 C-7.58125 16.716875 -7.7875 15.87125 -8 15 C-8.66 14.67 -9.32 14.34 -10 14 C-10 12.68 -10 11.36 -10 10 C-9.34 9.67 -8.68 9.34 -8 9 C-7.27306096 7.02111039 -6.60183749 5.02045442 -6 3 C-5.195625 2.87625 -4.39125 2.7525 -3.5625 2.625 C-2.716875 2.41875 -1.87125 2.2125 -1 2 C-0.67 1.34 -0.34 0.68 0 0 Z " fill="#8C8C8C" transform="translate(30,3)"/>
<path d="M0 0 C1.51400391 0.01740234 1.51400391 0.01740234 3.05859375 0.03515625 C4.07050781 0.04417969 5.08242187 0.05320312 6.125 0.0625 C7.29869141 0.07990234 7.29869141 0.07990234 8.49609375 0.09765625 C8.49609375 0.75765625 8.49609375 1.41765625 8.49609375 2.09765625 C5.19609375 2.09765625 1.89609375 2.09765625 -1.50390625 2.09765625 C-1.50390625 14.63765625 -1.50390625 27.17765625 -1.50390625 40.09765625 C14.33609375 40.09765625 30.17609375 40.09765625 46.49609375 40.09765625 C46.49609375 27.55765625 46.49609375 15.01765625 46.49609375 2.09765625 C43.19609375 2.09765625 39.89609375 2.09765625 36.49609375 2.09765625 C36.49609375 1.43765625 36.49609375 0.77765625 36.49609375 0.09765625 C38.30851427 0.07078346 40.12104608 0.0513191 41.93359375 0.03515625 C42.94292969 0.02355469 43.95226563 0.01195312 44.9921875 0 C47.49609375 0.09765625 47.49609375 0.09765625 48.49609375 1.09765625 C48.58480648 4.12743429 48.61128725 7.13432647 48.59375 10.1640625 C48.59233505 11.07268539 48.5909201 11.98130829 48.58946228 12.91746521 C48.58384568 15.83172846 48.5712904 18.74591606 48.55859375 21.66015625 C48.55358089 23.63085827 48.54901761 25.60156149 48.54492188 27.57226562 C48.53387086 32.41409184 48.51659513 37.2558612 48.49609375 42.09765625 C42.88609375 42.09765625 37.27609375 42.09765625 31.49609375 42.09765625 C31.49609375 43.41765625 31.49609375 44.73765625 31.49609375 46.09765625 C25.55609375 46.09765625 19.61609375 46.09765625 13.49609375 46.09765625 C13.49609375 44.77765625 13.49609375 43.45765625 13.49609375 42.09765625 C7.88609375 42.09765625 2.27609375 42.09765625 -3.50390625 42.09765625 C-3.52855263 36.27694003 -3.54674055 30.45625391 -3.55883789 24.63549805 C-3.56387892 22.65372184 -3.57071163 20.67194936 -3.5793457 18.69018555 C-3.5914214 15.84813516 -3.5971367 13.00613378 -3.6015625 10.1640625 C-3.60672379 9.27239883 -3.61188507 8.38073517 -3.61720276 7.46205139 C-3.61739802 5.34025024 -3.56600655 3.21854845 -3.50390625 1.09765625 C-2.50390625 0.09765625 -2.50390625 0.09765625 0 0 Z " fill="#C6CBEB" transform="translate(9.50390625,10.90234375)"/>
<path d="M0 0 C5.94 0 11.88 0 18 0 C18 1.32 18 2.64 18 4 C25.26 4 32.52 4 40 4 C40 2.68 40 1.36 40 0 C45.94 0 51.88 0 58 0 C58 1.98 58 3.96 58 6 C38.86 6 19.72 6 0 6 C0 4.02 0 2.04 0 0 Z " fill="#23395F" transform="translate(3,55)"/>
<path d="M0 0 C1.98 0 3.96 0 6 0 C6 6.6 6 13.2 6 20 C4.02 20 2.04 20 0 20 C0 13.4 0 6.8 0 0 Z " fill="#131B2D" transform="translate(45,27)"/>
<path d="M0 0 C2.9375 0.75 2.9375 0.75 4.9375 2.75 C4.75 6.25 4.75 6.25 3.9375 9.75 C0.70496204 11.90502531 -0.31400923 12.21856135 -4.0625 11.75 C-5.9375 10.6875 -5.9375 10.6875 -7.0625 8.75 C-6.9375 5.1875 -6.9375 5.1875 -6.0625 1.75 C-3.0625 -0.25 -3.0625 -0.25 0 0 Z " fill="#D6D6D6" transform="translate(33.0625,9.25)"/>
<path d="M0 0 C1.98 0 3.96 0 6 0 C6 5.28 6 10.56 6 16 C4.02 16 2.04 16 0 16 C0 10.72 0 5.44 0 0 Z " fill="#131A2A" transform="translate(37,31)"/>
<path d="M0 0 C4.0743356 0.84881992 5.54405875 2.30225596 8 5.625 C8.625 8.625 8.625 8.625 8 11.625 C5.54405875 14.94774404 4.0743356 16.40118008 0 17.25 C-4.0743356 16.40118008 -5.54405875 14.94774404 -8 11.625 C-8.625 8.625 -8.625 8.625 -8 5.625 C-5.54405875 2.30225596 -4.0743356 0.84881992 0 0 Z M-4.25 4.3125 C-6.18010547 6.49404316 -6.18010547 6.49404316 -6.4375 9.1875 C-6.14003166 11.61944204 -6.14003166 11.61944204 -4.9375 13.5 C-1.79705307 15.32348531 0.5985313 14.4908284 4 13.625 C6.14762184 10.40356724 6.561068 9.3654533 6 5.625 C4.32683688 3.70345307 4.32683688 3.70345307 2 2.625 C-1.93541667 2.225 -1.93541667 2.225 -4.25 4.3125 Z " fill="#161616" transform="translate(32,6.375)"/>
<path d="M0 0 C1.98 0 3.96 0 6 0 C6 4.62 6 9.24 6 14 C4.02 14 2.04 14 0 14 C0 9.38 0 4.76 0 0 Z " fill="#121929" transform="translate(29,33)"/>
<path d="M0 0 C0.66 0 1.32 0 2 0 C2 1.98 2 3.96 2 6 C-17.14 6 -36.28 6 -56 6 C-56 5.67 -56 5.34 -56 5 C-28.775 4.505 -28.775 4.505 -1 4 C-0.67 2.68 -0.34 1.36 0 0 Z " fill="#203C66" transform="translate(59,55)"/>
<path d="M0 0 C0.66 0.66 1.32 1.32 2 2 C3.98356483 2.71408334 5.98315437 3.38617742 8 4 C8 4.66 8 5.32 8 6 C9.32 6 10.64 6 12 6 C12.33 5.01 12.66 4.02 13 3 C13.78375 2.87625 14.5675 2.7525 15.375 2.625 C18.14057822 2.20882007 18.14057822 2.20882007 20 0 C20.66 0 21.32 0 22 0 C20.98545548 2.5363613 20.3146444 3.79351461 18 5.3125 C17.34 5.539375 16.68 5.76625 16 6 C15.34 5.67 14.68 5.34 14 5 C14 5.99 14 6.98 14 8 C11.36 8 8.72 8 6 8 C6 7.01 6 6.02 6 5 C5.401875 5.226875 4.80375 5.45375 4.1875 5.6875 C3.465625 5.790625 2.74375 5.89375 2 6 C0.25 4.5625 0.25 4.5625 -1 3 C-0.67 2.01 -0.34 1.02 0 0 Z " fill="#0C0C0C" transform="translate(22,21)"/>
<path d="M0 0 C5.28 0 10.56 0 16 0 C16 1.32 16 2.64 16 4 C10.72 4 5.44 4 0 4 C0 2.68 0 1.36 0 0 Z " fill="#3A5791" transform="translate(43,55)"/>
<path d="M0 0 C1.32 0.66 2.64 1.32 4 2 C3.505 2.53625 3.01 3.0725 2.5 3.625 C0.52054983 6.75912943 0.41496039 8.34350241 1 12 C2.48440117 14.26783513 4.11590735 16.02170272 6 18 C4.02 18 2.04 18 0 18 C-0.28875 17.030625 -0.5775 16.06125 -0.875 15.0625 C-1.64214682 11.89335797 -1.64214682 11.89335797 -4 11 C-4 9.68 -4 8.36 -4 7 C-3.34 6.67 -2.68 6.34 -2 6 C-1.27306096 4.02111039 -0.60183749 2.02045442 0 0 Z " fill="#8D8D8D" transform="translate(24,6)"/>
<path d="M0 0 C1.98 0 3.96 0 6 0 C6 3.3 6 6.6 6 10 C4.02 10 2.04 10 0 10 C0 6.7 0 3.4 0 0 Z " fill="#101724" transform="translate(21,37)"/>
<path d="M0 0 C5.94 0 11.88 0 18 0 C18 1.32 18 2.64 18 4 C16.68 4 15.36 4 14 4 C14 3.34 14 2.68 14 2 C13.34 2 12.68 2 12 2 C12 2.66 12 3.32 12 4 C11.34 4 10.68 4 10 4 C10 3.34 10 2.68 10 2 C8.02 2 6.04 2 4 2 C4 2.66 4 3.32 4 4 C2.68 4 1.36 4 0 4 C0 2.68 0 1.36 0 0 Z " fill="#3A5791" transform="translate(3,55)"/>
<path d="M0 0 C1.98 0 3.96 0 6 0 C6 2.64 6 5.28 6 8 C4.02 8 2.04 8 0 8 C0 5.36 0 2.72 0 0 Z " fill="#0F141F" transform="translate(13,39)"/>
<path d="M0 0 C0.33 1.32 0.66 2.64 1 4 C0.030625 4.28875 -0.93875 4.5775 -1.9375 4.875 C-5.10664203 5.64214682 -5.10664203 5.64214682 -6 8 C-7.32 8 -8.64 8 -10 8 C-10.33 7.01 -10.66 6.02 -11 5 C-10.37351562 4.72285156 -9.74703125 4.44570313 -9.1015625 4.16015625 C-8.28429687 3.79792969 -7.46703125 3.43570312 -6.625 3.0625 C-5.81289063 2.70285156 -5.00078125 2.34320312 -4.1640625 1.97265625 C-2.76316215 1.3430097 -1.37374716 0.68687358 0 0 Z " fill="#727272" transform="translate(40,19)"/>
<path d="M0 0 C0.66 0 1.32 0 2 0 C2.20625 1.11375 2.4125 2.2275 2.625 3.375 C3.61628301 7.26599195 3.61628301 7.26599195 7.125 8.4375 C8.07375 8.623125 9.0225 8.80875 10 9 C10 9.66 10 10.32 10 11 C3.59296098 10.51644989 3.59296098 10.51644989 1.0625 8.3125 C-0.27148038 5.40913094 -0.21536552 3.15869424 0 0 Z " fill="#0F0F0F" transform="translate(24,12)"/>
<path d="M0 0 C2 1.75 2 1.75 4 4 C4 5.32 4 6.64 4 8 C1.5 9.75 1.5 9.75 -1 11 C-0.67 7.37 -0.34 3.74 0 0 Z " fill="#7F7F7F" transform="translate(40,9)"/>
<path d="M0 0 C0.66 0 1.32 0 2 0 C0.52307692 4.67692308 0.52307692 4.67692308 -2.125 6.3125 C-3.053125 6.6528125 -3.053125 6.6528125 -4 7 C-4.66 5.68 -5.32 4.36 -6 3 C-4.68 3.33 -3.36 3.66 -2 4 C-1.34 2.68 -0.68 1.36 0 0 Z " fill="#191919" transform="translate(34,12)"/>
<path d="M0 0 C0.556875 0.7115625 0.556875 0.7115625 1.125 1.4375 C3.62646962 3.52205802 5.81593418 3.64621491 9 4 C7 6 7 6 4.5625 6.3125 C1.60720543 5.95209822 0.81112073 5.28773145 -1 3 C-0.67 2.01 -0.34 1.02 0 0 Z " fill="#B6B6B6" transform="translate(27,15)"/>
<path d="M0 0 C0.66 0.66 1.32 1.32 2 2 C0.35 3.65 -1.3 5.3 -3 7 C-3.33 6.01 -3.66 5.02 -4 4 C-2.68 2.68 -1.36 1.36 0 0 Z " fill="#1C1C1C" transform="translate(38,16)"/>
</svg>
