<?xml version="1.0" encoding="UTF-8"?>
<svg version="1.1" xmlns="http://www.w3.org/2000/svg" width="512" height="512">
<path d="M0 0 C1.20825439 0.05063599 1.20825439 0.05063599 2.44091797 0.10229492 C3.31248535 0.16006104 4.18405273 0.21782715 5.08203125 0.27734375 C6.00258301 0.33188721 6.92313477 0.38643066 7.87158203 0.44262695 C51.24813562 3.44450225 93.99151174 18.03285994 128.89453125 44.21484375 C129.49555664 44.66182617 130.09658203 45.10880859 130.71582031 45.56933594 C139.62313277 52.23901626 147.87338809 59.51032466 155.89453125 67.21484375 C156.79171875 68.07078125 157.68890625 68.92671875 158.61328125 69.80859375 C173.10051553 83.93811854 184.96486243 100.63604666 194.89453125 118.21484375 C195.26288086 118.85583008 195.63123047 119.49681641 196.01074219 120.15722656 C213.04340473 149.98285161 223.8005362 185.84484192 224.1328125 220.33203125 C224.14260635 221.17856766 224.15240021 222.02510406 224.16249084 222.89729309 C224.34096364 242.34372023 224.0191804 261.12029218 219.89453125 280.21484375 C219.57307129 281.70636963 219.57307129 281.70636963 219.24511719 283.22802734 C207.87003547 334.06818517 178.56818801 382.46882797 136.89453125 414.21484375 C136.32621582 414.64893555 135.75790039 415.08302734 135.17236328 415.53027344 C126.72982319 421.94579579 118.1391198 427.99626903 108.89453125 433.21484375 C108.10111328 433.66472656 107.30769531 434.11460937 106.49023438 434.578125 C78.61116836 450.19699569 48.61148315 459.60443335 16.89453125 463.21484375 C15.86070312 463.34632813 14.826875 463.4778125 13.76171875 463.61328125 C-43.37211763 469.77640646 -104.28077553 451.9717009 -149.10546875 416.21484375 C-150.01425781 415.498125 -150.92304688 414.78140625 -151.859375 414.04296875 C-158.89252056 408.40044514 -165.54253659 402.39061013 -172.10546875 396.21484375 C-172.76417969 395.59867187 -173.42289062 394.9825 -174.1015625 394.34765625 C-179.25104319 389.37656404 -183.6633045 383.8148836 -188.10546875 378.21484375 C-189.31589844 376.71244141 -189.31589844 376.71244141 -190.55078125 375.1796875 C-212.93261015 347.07575749 -228.02512956 313.37909802 -235.29296875 278.27734375 C-235.44797852 277.53991943 -235.60298828 276.80249512 -235.76269531 276.04272461 C-238.75015807 260.7620804 -239.38910548 245.60930528 -239.23046875 230.08984375 C-239.22039826 228.34115108 -239.21127974 226.59245266 -239.203125 224.84375 C-239.18148101 220.63396772 -239.14718637 216.42447296 -239.10546875 212.21484375 C-240.22566406 212.23804688 -241.34585938 212.26125 -242.5 212.28515625 C-243.97264959 212.30391612 -245.44530638 212.32211609 -246.91796875 212.33984375 C-247.65595703 212.35660156 -248.39394531 212.37335938 -249.15429688 212.390625 C-253.01793301 212.42559003 -254.81450543 212.4088193 -258.10546875 210.21484375 C-258.89801302 205.68194665 -258.23089177 202.94402936 -255.71875 199.2265625 C-254.63483283 197.77282644 -253.53345024 196.33200315 -252.41796875 194.90234375 C-251.21961362 193.30762106 -250.02170974 191.71255919 -248.82421875 190.1171875 C-247.89802734 188.90071533 -247.89802734 188.90071533 -246.953125 187.65966797 C-244.04256098 183.80840105 -241.23451429 179.88505663 -238.41796875 175.96484375 C-237.88010742 175.22524414 -237.34224609 174.48564453 -236.78808594 173.72363281 C-234.22097288 170.19092275 -231.70100171 166.64073562 -229.27734375 163.0078125 C-228.61351685 162.02893066 -228.61351685 162.02893066 -227.9362793 161.03027344 C-227.11782111 159.81841966 -226.31341943 158.59689579 -225.52661133 157.36425781 C-223.62784088 154.57631729 -222.29209728 153.28915182 -219.1328125 152.03125 C-216.10546875 152.21484375 -216.10546875 152.21484375 -213.5703125 154.17578125 C-210.76659621 157.63266123 -208.18195649 161.16908969 -205.66796875 164.83984375 C-201.14240384 171.35405526 -196.51503149 177.77917035 -191.79296875 184.15234375 C-190.61708935 185.74992776 -189.44130454 187.3475814 -188.265625 188.9453125 C-186.42213575 191.44644948 -184.56273483 193.9311839 -182.6640625 196.390625 C-177.72204538 202.96999729 -177.72204538 202.96999729 -177.48046875 207.21484375 C-178.10546875 210.21484375 -178.10546875 210.21484375 -181.10546875 212.21484375 C-183.87202199 212.35730272 -186.53200181 212.4025382 -189.29296875 212.33984375 C-190.04255859 212.33082031 -190.79214844 212.32179687 -191.56445312 212.3125 C-193.41159529 212.28896953 -195.25857287 212.25309936 -197.10546875 212.21484375 C-196.1210418 267.1251999 -185.38730524 322.04646787 -144.28515625 361.953125 C-142.10546875 364.21484375 -142.10546875 364.21484375 -142.10546875 366.21484375 C-141.21601563 366.60542969 -141.21601563 366.60542969 -140.30859375 367.00390625 C-137.95493229 368.29758542 -136.64883193 369.60373593 -134.85546875 371.58984375 C-111.81802331 395.14018222 -77.83373467 410.20870583 -46.10546875 417.21484375 C-45.38891113 417.38000488 -44.67235352 417.54516602 -43.93408203 417.71533203 C-19.02525502 423.2183788 10.25439954 422.37841896 34.89453125 416.21484375 C35.7673877 416.00585449 36.64024414 415.79686523 37.53955078 415.58154297 C68.28677752 408.07879252 96.86839347 392.96881922 119.89453125 371.21484375 C121.22395073 370.08522142 122.55716843 368.96005063 123.89453125 367.83984375 C138.01481751 355.44568467 148.82996971 339.54791882 157.89453125 323.21484375 C158.23581055 322.60092773 158.57708984 321.98701172 158.92871094 321.35449219 C168.87658319 303.16273729 175.15905472 283.56220412 178.89453125 263.21484375 C179.02585449 262.50118652 179.15717773 261.7875293 179.29248047 261.05224609 C187.63093163 212.83424591 173.92763487 161.99810774 146.18359375 122.28125 C136.15056707 108.31149378 124.60133778 95.64307696 110.89453125 85.21484375 C109.93804687 84.43109375 108.9815625 83.64734375 107.99609375 82.83984375 C77.63091142 58.36413003 37.66914556 44.04245815 -1.3125 43.68359375 C-4.96011755 43.07140619 -5.89300916 42.1677929 -8.10546875 39.21484375 C-8.50325245 36.36262201 -8.66717968 33.90405392 -8.63671875 31.0546875 C-8.64054565 30.26840469 -8.64437256 29.48212189 -8.64831543 28.67201233 C-8.65103198 27.01366898 -8.64368861 25.35528261 -8.62695312 23.69702148 C-8.60550867 21.15707171 -8.62677549 18.61994096 -8.65234375 16.08007812 C-8.64970099 14.46744167 -8.64457707 12.85480697 -8.63671875 11.2421875 C-8.64481567 10.48276352 -8.6529126 9.72333954 -8.66125488 8.94090271 C-8.60280821 5.66081662 -8.56091361 3.72455145 -6.32885742 1.2265625 C-3.95628349 0.1469593 -2.58627391 -0.11881673 0 0 Z " fill="#000000" transform="translate(273.10546875,23.78515625)"/>
<path d="M0 0 C13.53 0 27.06 0 41 0 C46 12 46 12 47.5 18.3125 C48.81795363 21.55669356 49.92671022 23.43393601 53.06640625 25.08984375 C57.50978051 26.84325134 62.06107232 28.12012466 66.66015625 29.39453125 C72.50843539 31.03262671 77.16982949 33.56843658 82.30859375 36.8125 C85.83412302 38.36803106 87.3071261 38.08771922 91 37 C94.92087398 35.36078519 98.73307137 33.49946962 102.54296875 31.61914062 C103.31511719 31.25626953 104.08726562 30.89339844 104.8828125 30.51953125 C105.57777832 30.18026611 106.27274414 29.84100098 106.98876953 29.49145508 C109 29 109 29 110.87744141 29.53735352 C113.94423823 31.65067072 116.47974532 34.23549417 119.078125 36.8828125 C119.64956238 37.45707977 120.22099976 38.03134705 120.80975342 38.62301636 C122.62792945 40.4523581 124.43901492 42.28854193 126.25 44.125 C127.48391329 45.36894774 128.71828322 46.6124427 129.953125 47.85546875 C132.97406743 50.89842367 135.98867092 53.94753254 139 57 C138.21878464 59.0648024 137.43429013 61.12836431 136.6484375 63.19140625 C136.21192871 64.34068604 135.77541992 65.48996582 135.32568359 66.67407227 C133.92440236 70.18966236 132.34849692 73.54849637 130.6015625 76.90234375 C128.88933358 82.87290823 132.38396565 87.97729943 135.17382812 93.03979492 C137.01335911 96.54402917 138.25007465 99.69826506 138.98828125 103.59765625 C140.64933886 112.34716087 140.64933886 112.34716087 146.49462891 118.65820312 C152.39606491 121.54909942 158.55021166 123.57900585 164.87036133 125.34594727 C167 126 167 126 168 127 C168.08868299 129.95705321 168.11520296 132.89065056 168.09765625 135.84765625 C168.09553383 137.17729652 168.09553383 137.17729652 168.09336853 138.53379822 C168.08775215 141.37673254 168.07519691 144.21958931 168.0625 147.0625 C168.05748711 148.98502491 168.05292384 150.90755104 168.04882812 152.83007812 C168.03777741 157.55341549 168.02050183 162.27669458 168 167 C166.58393031 167.64799727 165.16579686 168.29148565 163.74682617 168.93310547 C162.95733078 169.29193817 162.16783539 169.65077087 161.35441589 170.02047729 C159.25137365 170.89541941 157.2570426 171.52567271 155.05078125 172.0703125 C147.99225097 173.92519775 147.99225097 173.92519775 142.86914062 178.77539062 C141.27828572 182.46631447 140.31846859 186.2738488 139.34375 190.1640625 C137.91917818 195.81924969 135.33017513 200.65821639 132.44946289 205.69677734 C130.91201885 208.51846564 129.99666667 210.59666734 130.0234375 213.8359375 C131.40697471 218.31859808 133.18881872 222.57750649 135.0625 226.875 C135.43955078 227.75414062 135.81660156 228.63328125 136.20507812 229.5390625 C137.13086072 231.69531564 138.06261911 233.84876979 139 236 C133.61359076 242.55377097 127.64114873 248.47246635 121.625 254.4375 C120.59221405 255.46525983 119.55966009 256.49325285 118.52734375 257.52148438 C116.02089713 260.01701598 113.5113292 262.50938082 111 265 C104.11012145 262.81835253 97.69746603 260.14074338 91.13671875 257.109375 C86.60530571 255.50673328 84.75334079 256.64490104 80.453125 258.671875 C78.29580582 259.73386028 76.14270524 260.80369959 73.99243164 261.87988281 C70.21752932 263.70507534 66.74316145 265.18366557 62.60546875 265.9375 C56.42663737 267.02595114 56.42663737 267.02595114 51 270 C47.34503154 275.34512728 45.46195856 281.60817563 43.70751953 287.78930664 C43 290 43 290 41 294 C27.47 294 13.94 294 0 294 C-1.485 290.24625 -2.97 286.4925 -4.5 282.625 C-4.96986328 281.44244629 -5.43972656 280.25989258 -5.92382812 279.04150391 C-6.28927734 278.11257324 -6.65472656 277.18364258 -7.03125 276.2265625 C-7.40830078 275.27346191 -7.78535156 274.32036133 -8.17382812 273.33837891 C-9 271 -9 271 -9 269 C-10.66869141 268.87044922 -10.66869141 268.87044922 -12.37109375 268.73828125 C-17.61723954 268.07890435 -22.20565694 266.20416957 -27.0625 264.1875 C-27.92166016 263.84396484 -28.78082031 263.50042969 -29.66601562 263.14648438 C-33.57538725 261.55466231 -37.23222388 259.92491837 -40.80859375 257.67578125 C-43.74911479 255.81825916 -43.74911479 255.81825916 -46.37109375 255.9921875 C-51.19404409 257.84110457 -55.84025832 260.05761002 -60.49414062 262.29296875 C-61.27080078 262.65261719 -62.04746094 263.01226562 -62.84765625 263.3828125 C-63.54898682 263.71684082 -64.25031738 264.05086914 -64.97290039 264.39501953 C-67.45096857 265.13458992 -68.56814171 264.81556863 -71 264 C-73.14394711 262.1950241 -75.12580904 260.38990497 -77.11328125 258.42578125 C-77.6870903 257.86432907 -78.26089935 257.30287689 -78.85209656 256.72441101 C-80.06045139 255.53560141 -81.26469831 254.34260388 -82.46508789 253.14575195 C-84.30631773 251.31863489 -86.17249468 249.51984647 -88.04101562 247.72070312 C-89.21257028 246.56154375 -90.38254768 245.40078763 -91.55078125 244.23828125 C-92.11211258 243.70366776 -92.67344391 243.16905426 -93.25178528 242.61824036 C-94.7902832 241.05200195 -94.7902832 241.05200195 -97 238 C-96.95059329 234.10479969 -95.79713778 231.11038242 -94.08203125 227.65234375 C-93.71529297 226.88212891 -93.34855469 226.11191406 -92.97070312 225.31835938 C-92.19477896 223.72333144 -91.41082839 222.13218458 -90.61914062 220.54492188 C-88.40728955 216.12945786 -88.40728955 216.12945786 -88.5546875 211.3671875 C-89.03164062 210.58601562 -89.50859375 209.80484375 -90 209 C-90.51175781 207.94167969 -91.02351563 206.88335937 -91.55078125 205.79296875 C-91.83493896 205.21377686 -92.11909668 204.63458496 -92.41186523 204.0378418 C-102 184.33915018 -102 184.33915018 -102 176 C-103.65 175.67 -105.3 175.34 -107 175 C-116.405 171.535 -116.405 171.535 -126 168 C-126 154.14 -126 140.28 -126 126 C-122.596875 124.68 -119.19375 123.36 -115.6875 122 C-114.61846436 121.58234375 -113.54942871 121.1646875 -112.44799805 120.734375 C-111.60277588 120.40953125 -110.75755371 120.0846875 -109.88671875 119.75 C-108.59060669 119.24726563 -108.59060669 119.24726563 -107.26831055 118.734375 C-105 118 -105 118 -102 118 C-101.77957031 116.96166016 -101.77957031 116.96166016 -101.5546875 115.90234375 C-100.16661855 109.84749124 -98.41858138 104.07591431 -96.125 98.3125 C-95.74299438 97.35210815 -95.74299438 97.35210815 -95.35327148 96.37231445 C-93.84441522 92.70821945 -92.09520976 89.43965869 -89.9375 86.125 C-88.60329198 83.80950349 -87.95801335 82.59002291 -88.1484375 79.9140625 C-88.89926912 77.46723476 -89.86877679 75.29790797 -91 73 C-92.08888041 70.75267925 -93.17193215 68.50252765 -94.25 66.25 C-94.79140625 65.18265625 -95.3328125 64.1153125 -95.890625 63.015625 C-97.17715437 59.51843953 -97.18835291 58.48747519 -96 55 C-94.18839455 52.77733038 -92.41072981 50.80244625 -90.390625 48.7890625 C-89.82680115 48.2166684 -89.26297729 47.64427429 -88.68206787 47.05453491 C-87.49009316 45.85110009 -86.29287685 44.6528373 -85.09082031 43.45947266 C-83.25249784 41.62748922 -81.44245588 39.77042246 -79.6328125 37.91015625 C-78.47037318 36.74317255 -77.30636201 35.57775204 -76.140625 34.4140625 C-75.60085022 33.85586823 -75.06107544 33.29767395 -74.50494385 32.7225647 C-72.93847656 31.19384766 -72.93847656 31.19384766 -70 29 C-66.5415328 29.05804962 -63.83896686 30.39052689 -60.75 31.8828125 C-59.9765625 32.24503906 -59.203125 32.60726562 -58.40625 32.98046875 C-56.7990403 33.744937 -55.19486012 34.51580653 -53.59375 35.29296875 C-49.1467005 37.40417534 -49.1467005 37.40417534 -44.3359375 37.9453125 C-41.31946812 36.72460081 -38.49367021 35.2879817 -35.625 33.75 C-27.5436952 29.55072021 -18.20524324 25 -9 25 C-8.85304688 24.45214844 -8.70609375 23.90429688 -8.5546875 23.33984375 C-6.25022941 15.19477636 -3.20672059 8.01680147 0 0 Z M-29.6484375 99.6796875 C-43.3139657 115.15087108 -49.17696904 133.43514103 -48 154 C-46.12498449 167.59755343 -41.45163047 179.20679226 -33 190 C-32.19949219 191.04800781 -32.19949219 191.04800781 -31.3828125 192.1171875 C-20.70543974 205.24677984 -4.44444231 213.26430093 12.125 215.6875 C14.043125 215.8421875 14.043125 215.8421875 16 216 C16.63679688 216.05285156 17.27359375 216.10570312 17.9296875 216.16015625 C37.0217159 216.98867824 53.83952923 208.95326204 68.28125 197.1328125 C79.43469162 186.82030497 88.03577605 170.88336191 89.17700195 155.63500977 C89.71468124 134.19424479 86.03058223 116.31891785 71 100 C57.41079395 86.04351811 40.48190938 78.46725483 21.06640625 77.87890625 C1.90591106 78.18009904 -16.12789933 85.99961496 -29.6484375 99.6796875 Z " fill="#000000" transform="translate(250,109)"/>
</svg>
