<svg version="1.1" xmlns="http://www.w3.org/2000/svg" width="512" height="512">
<path d="M0 0 C4.00921462 1.82533349 5.04429822 3.22056251 7.17578125 7.03125 C7.49417969 7.59223389 7.81257813 8.15321777 8.140625 8.73120117 C8.84182066 9.97251152 9.5336023 11.21917348 10.21728516 12.47021484 C11.4644915 14.71327321 12.7744128 16.91193334 14.09375 19.11328125 C15.01832402 20.68928547 15.94151489 22.266102 16.86328125 23.84375 C17.30905518 24.58367187 17.7548291 25.32359375 18.21411133 26.0859375 C21.11649003 31.18491119 21.97252039 34.66097707 21.36328125 40.53125 C19.86328125 43.03125 19.86328125 43.03125 17.36328125 44.53125 C13.07693005 45.20395703 10.05658857 44.99345488 6.36328125 42.53125 C6.03328125 49.79125 5.70328125 57.05125 5.36328125 64.53125 C7.19890625 64.61375 9.03453125 64.69625 10.92578125 64.78125 C39.19330336 67.04265177 65.85449442 82.44006495 84.1796875 103.7578125 C105.12512753 130.36114421 112.20816544 160.92580234 109.09082031 194.46240234 C107.17511257 208.80307573 101.65949469 226.19815921 92.36328125 237.53125 C89.42417447 239.40887864 88.42573507 239.53453704 84.80078125 239.34375 C81.36328125 238.53125 81.36328125 238.53125 79.48828125 237.40625 C77.68086587 234.39389104 77.51286871 232.04829477 77.36328125 228.53125 C78.41901933 225.33021684 79.97159861 222.43971371 81.55078125 219.46875 C93.28657662 196.0084589 95.17924596 171.50037215 87.36328125 146.53125 C78.30032377 120.98465846 61.07901773 102.00256337 36.86328125 90.21875 C13.43922541 80.01840723 -12.4623436 78.82363541 -36.53369141 87.68603516 C-47.77088318 92.2023061 -57.74352588 98.28353081 -66.63671875 106.53125 C-67.4359375 107.26214844 -68.23515625 107.99304688 -69.05859375 108.74609375 C-84.0973979 123.10360979 -95.48583834 145.33781496 -96.8137207 166.3293457 C-97.4258933 195.07706849 -91.98428635 219.77423496 -71.75048828 241.32421875 C-52.56145236 261.29287067 -28.0905206 270.89910727 -0.63671875 271.53125 C11.23635016 271.33448632 24.6878905 268.86894537 35.36328125 263.53125 C42.33187629 263.08166322 42.33187629 263.08166322 45.80078125 264.59375 C48.15587831 267.51407035 48.29939542 269.82587195 48.36328125 273.53125 C45.81875252 279.12240511 42.39153989 280.21515147 36.90234375 282.33203125 C13.94402021 290.11150733 -12.31549197 292.09022681 -35.63671875 284.53125 C-36.65910645 284.20979004 -36.65910645 284.20979004 -37.70214844 283.88183594 C-51.93023754 279.29923059 -64.32284277 272.34411424 -75.63671875 262.53125 C-76.44496094 261.86738281 -77.25320312 261.20351563 -78.0859375 260.51953125 C-98.27530976 243.37282733 -111.45046149 217.77139277 -114.63671875 191.53125 C-114.94839638 186.6734866 -115.01852225 181.83572825 -115.01171875 176.96875 C-115.01117493 176.30961609 -115.0106311 175.65048218 -115.0100708 174.97137451 C-114.96852969 163.99023186 -114.02166663 153.9746128 -110.63671875 143.53125 C-110.42241211 142.8496582 -110.20810547 142.16806641 -109.98730469 141.46582031 C-105.40469934 127.23773121 -98.44958299 114.84512598 -88.63671875 103.53125 C-87.97285156 102.72300781 -87.30898437 101.91476562 -86.625 101.08203125 C-69.92680674 81.42075748 -43.54578857 66.7315003 -17.63671875 64.53125 C-15.65671875 64.53125 -13.67671875 64.53125 -11.63671875 64.53125 C-12.13171875 54.13625 -12.13171875 54.13625 -12.63671875 43.53125 C-13.62671875 44.02625 -13.62671875 44.02625 -14.63671875 44.53125 C-21.82884718 45.11126036 -21.82884718 45.11126036 -25.07421875 42.78125 C-26.65756303 40.50123424 -27.24590346 39.24435043 -27.63671875 36.53125 C-25.63643065 28.53647954 -20.85463445 21.15424683 -16.76171875 14.09375 C-15.86259766 12.48209961 -15.86259766 12.48209961 -14.9453125 10.83789062 C-14.35105469 9.80986328 -13.75679688 8.78183594 -13.14453125 7.72265625 C-12.6148877 6.79654541 -12.08524414 5.87043457 -11.53955078 4.91625977 C-8.28229467 0.83361479 -5.16490201 -0.66572314 0 0 Z " fill="#000000" transform="translate(258.63671875,223.46875)"/>
<path d="M0 0 C0.90471542 -0.00671722 1.80943085 -0.01343445 2.74156189 -0.02035522 C5.72774778 -0.03932819 8.71370879 -0.04325918 11.69995117 -0.04541016 C13.78114412 -0.05183893 15.86233617 -0.05856735 17.94352722 -0.06558228 C22.30547175 -0.07755354 26.66733708 -0.08126328 31.02929688 -0.08007812 C36.60780665 -0.07987503 42.18580645 -0.10716837 47.76419544 -0.14162254 C52.06314915 -0.16390444 56.36198042 -0.16791525 60.66098595 -0.16685867 C62.71700484 -0.16921302 64.77302719 -0.17802712 66.82898903 -0.19352341 C69.71057033 -0.21320773 72.59105578 -0.20733545 75.47265625 -0.1953125 C76.73618423 -0.21217102 76.73618423 -0.21217102 78.02523804 -0.22937012 C84.82620696 -0.15757821 90.03077487 1.74954919 95.17260742 6.25537109 C95.71143555 6.90634766 96.25026367 7.55732422 96.80541992 8.22802734 C97.3597168 8.87642578 97.91401367 9.52482422 98.48510742 10.19287109 C101.69580927 14.85272756 102.18302941 18.83791877 102.19784546 24.44367981 C102.20237657 25.15284552 102.20690768 25.86201123 102.2115761 26.5926668 C102.22421144 28.96313038 102.22260031 31.33336395 102.22094727 33.70385742 C102.22693309 35.4058817 102.23373876 37.10790327 102.24130249 38.80992126 C102.2589649 43.42986424 102.26365799 48.04973311 102.26493406 52.66970658 C102.26635616 55.55750374 102.2706269 58.44528209 102.2759285 61.33307457 C102.29443006 71.41175914 102.30259901 81.49039081 102.30102539 91.5690918 C102.29982418 100.95708433 102.32092216 110.34484689 102.35251272 119.73278123 C102.37868421 127.79834409 102.38939231 135.86383188 102.38811457 143.92943686 C102.38760516 148.74418103 102.3932765 153.55872083 102.41447067 158.37342262 C102.43386757 162.90350387 102.43396764 167.43318612 102.41943741 171.96328163 C102.41734996 173.62247807 102.42204642 175.28169958 102.43415833 176.94085312 C102.55071225 194.01806652 102.55071225 194.01806652 95.96557617 201.53271484 C95.31459961 202.07154297 94.66362305 202.61037109 93.99291992 203.16552734 C93.02032227 203.99697266 93.02032227 203.99697266 92.02807617 204.84521484 C86.76651853 208.47049665 82.04473609 208.58766094 75.86083984 208.58105469 C74.95612442 208.58777191 74.051409 208.59448914 73.11927795 208.60140991 C70.13309207 208.62038287 67.14713106 208.62431387 64.16088867 208.62646484 C62.07969572 208.63289361 59.99850368 208.63962203 57.91731262 208.64663696 C53.5553681 208.65860823 49.19350276 208.66231797 44.83154297 208.66113281 C39.2530332 208.66092972 33.6750334 208.68822306 28.0966444 208.72267723 C23.7976907 208.74495913 19.49885943 208.74896994 15.1998539 208.74791336 C13.14383501 208.7502677 11.08781266 208.7590818 9.03185081 208.77457809 C6.15026951 208.79426241 3.26978406 208.78839013 0.38818359 208.77636719 C-0.4541684 208.7876062 -1.29652039 208.79884521 -2.16439819 208.8104248 C-8.96536712 208.7386329 -14.16993503 206.8315055 -19.31176758 202.32568359 C-20.12000977 201.34921875 -20.12000977 201.34921875 -20.94458008 200.35302734 C-21.49887695 199.70462891 -22.05317383 199.05623047 -22.62426758 198.38818359 C-25.83496943 193.72832712 -26.32218957 189.74313592 -26.33700562 184.13737488 C-26.34153673 183.42820917 -26.34606784 182.71904346 -26.35073626 181.98838788 C-26.36337159 179.61792431 -26.36176047 177.24769074 -26.36010742 174.87719727 C-26.36609325 173.17517299 -26.37289892 171.47315142 -26.38046265 169.77113342 C-26.39812506 165.15119045 -26.40281815 160.53132158 -26.40409422 155.9113481 C-26.40551632 153.02355095 -26.40978705 150.1357726 -26.41508865 147.24798012 C-26.43359022 137.16929555 -26.44175917 127.09066388 -26.44018555 117.01196289 C-26.43898434 107.62397036 -26.46008232 98.2362078 -26.49167287 88.84827346 C-26.51784436 80.7827106 -26.52855246 72.71722281 -26.52727473 64.65161783 C-26.52676532 59.83687366 -26.53243666 55.02233386 -26.55363083 50.20763206 C-26.57302773 45.67755082 -26.5731278 41.14786857 -26.55859756 36.61777306 C-26.55651012 34.95857662 -26.56120657 33.29935511 -26.57331848 31.64020157 C-26.6898724 14.56298817 -26.6898724 14.56298817 -20.10473633 7.04833984 C-19.45375977 6.50951172 -18.8027832 5.97068359 -18.13208008 5.41552734 C-17.48368164 4.86123047 -16.8352832 4.30693359 -16.16723633 3.73583984 C-10.90567868 0.11055804 -6.18389625 -0.00660626 0 0 Z M-8.06958008 19.29052734 C-10.11595409 23.20710048 -10.32257975 26.54840977 -10.33027649 30.92564392 C-10.33410204 31.57905103 -10.33792758 32.23245813 -10.34186906 32.90566546 C-10.35215853 35.08733947 -10.34821473 37.2687483 -10.34423828 39.45043945 C-10.34858699 41.01777896 -10.35377068 42.58511634 -10.35972595 44.15245056 C-10.37310976 48.40451184 -10.37369533 52.65648419 -10.37116265 56.90856242 C-10.37009257 60.4597891 -10.37497725 64.01099781 -10.37976807 67.56222063 C-10.39086102 75.94066403 -10.39130179 84.31906258 -10.38525391 92.69750977 C-10.37921276 101.33797256 -10.39152918 109.97827257 -10.41282398 118.6187076 C-10.43044211 126.04050736 -10.43644102 133.46225532 -10.43318623 140.88407522 C-10.43137364 145.31530373 -10.43400718 149.7464161 -10.44790077 154.17762566 C-10.46047804 158.34487538 -10.45853605 162.51187137 -10.44548988 166.6791172 C-10.44312436 168.20691895 -10.44585795 169.73473856 -10.45411301 171.26251984 C-10.4645847 173.35144927 -10.45647753 175.43952794 -10.44380188 177.52842712 C-10.44396962 178.69629729 -10.44413736 179.86416746 -10.44431019 181.06742764 C-10.01799123 184.73424937 -8.97616695 187.14577629 -7.06958008 190.29052734 C-3.07652425 192.75616236 1.1803737 192.5808829 5.74658203 192.56518555 C6.51796005 192.57029648 7.28933807 192.57540741 8.08409119 192.58067322 C10.62539502 192.59453476 13.16642661 192.59361511 15.70776367 192.59130859 C17.4798645 192.59519732 19.25196441 192.59953235 21.02406311 192.60429382 C24.73531111 192.61174856 28.44646397 192.6114701 32.15771484 192.60620117 C36.90682079 192.60040648 41.65553673 192.61734108 46.40457821 192.64054585 C50.0635047 192.65529773 53.72233757 192.65615292 57.38128853 192.65303612 C59.1319309 192.65354856 60.88257861 192.65877189 62.63319206 192.66884804 C65.08400493 192.68122396 67.53406196 192.6744143 69.98486328 192.6628418 C70.70349548 192.67048553 71.42212769 192.67812927 72.16253662 192.68600464 C76.80274847 192.63772506 80.07668682 191.91387581 83.93041992 189.29052734 C85.97679394 185.37395421 86.18341959 182.03264492 86.19111633 177.65541077 C86.19494188 177.00200366 86.19876743 176.34859655 86.2027089 175.67538923 C86.21299838 173.49371522 86.20905457 171.31230638 86.20507812 169.13061523 C86.20942684 167.56327573 86.21461052 165.99593835 86.2205658 164.42860413 C86.2339496 160.17654285 86.23453518 155.9245705 86.2320025 151.67249227 C86.23093241 148.12126559 86.23581709 144.57005688 86.24060792 141.01883405 C86.25170087 132.64039066 86.25214164 124.2619921 86.24609375 115.88354492 C86.2400526 107.24308213 86.25236902 98.60278211 86.27366382 89.96234709 C86.29128195 82.54054733 86.29728086 75.11879937 86.29402608 67.69697946 C86.29221349 63.26575096 86.29484702 58.83463859 86.30874062 54.40342903 C86.32131788 50.23617931 86.31937589 46.06918332 86.30632973 41.90193748 C86.30396421 40.37413573 86.30669779 38.84631613 86.31495285 37.31853485 C86.32542454 35.22960542 86.31731737 33.14152674 86.30464172 31.05262756 C86.30480947 29.88475739 86.30497721 28.71688723 86.30515003 27.51362705 C85.87883107 23.84680532 84.8370068 21.4352784 82.93041992 18.29052734 C78.93736409 15.82489233 74.68046615 16.00017178 70.11425781 16.01586914 C68.95719078 16.00820274 68.95719078 16.00820274 67.77674866 16.00038147 C65.23544483 15.98651993 62.69441324 15.98743958 60.15307617 15.98974609 C58.38097534 15.98585737 56.60887544 15.98152233 54.83677673 15.97676086 C51.12552873 15.96930613 47.41437587 15.96958459 43.703125 15.97485352 C38.95401906 15.98064821 34.20530311 15.96371361 29.45626163 15.94050884 C25.79733514 15.92575696 22.13850228 15.92490176 18.47955132 15.92801857 C16.72890894 15.92750612 14.97826123 15.9222828 13.22764778 15.91220665 C10.77683491 15.89983072 8.32677789 15.90664038 5.87597656 15.91821289 C4.79802826 15.90674728 4.79802826 15.90674728 3.69830322 15.89505005 C-0.94190863 15.94332963 -4.21584698 16.66717888 -8.06958008 19.29052734 Z " fill="#000000" transform="translate(410.069580078125,-0.29052734375)"/>
<path d="M0 0 C0.90471542 -0.00671722 1.80943085 -0.01343445 2.74156189 -0.02035522 C5.72774778 -0.03932819 8.71370879 -0.04325918 11.69995117 -0.04541016 C13.78114412 -0.05183893 15.86233617 -0.05856735 17.94352722 -0.06558228 C22.30547175 -0.07755354 26.66733708 -0.08126328 31.02929688 -0.08007812 C36.60780665 -0.07987503 42.18580645 -0.10716837 47.76419544 -0.14162254 C52.06314915 -0.16390444 56.36198042 -0.16791525 60.66098595 -0.16685867 C62.71700484 -0.16921302 64.77302719 -0.17802712 66.82898903 -0.19352341 C69.71057033 -0.21320773 72.59105578 -0.20733545 75.47265625 -0.1953125 C76.73618423 -0.21217102 76.73618423 -0.21217102 78.02523804 -0.22937012 C84.82620696 -0.15757821 90.03077487 1.74954919 95.17260742 6.25537109 C95.71143555 6.90634766 96.25026367 7.55732422 96.80541992 8.22802734 C97.3597168 8.87642578 97.91401367 9.52482422 98.48510742 10.19287109 C101.69580927 14.85272756 102.18302941 18.83791877 102.19784546 24.44367981 C102.20237657 25.15284552 102.20690768 25.86201123 102.2115761 26.5926668 C102.22421144 28.96313038 102.22260031 31.33336395 102.22094727 33.70385742 C102.22693309 35.4058817 102.23373876 37.10790327 102.24130249 38.80992126 C102.2589649 43.42986424 102.26365799 48.04973311 102.26493406 52.66970658 C102.26635616 55.55750374 102.2706269 58.44528209 102.2759285 61.33307457 C102.29443006 71.41175914 102.30259901 81.49039081 102.30102539 91.5690918 C102.29982418 100.95708433 102.32092216 110.34484689 102.35251272 119.73278123 C102.37868421 127.79834409 102.38939231 135.86383188 102.38811457 143.92943686 C102.38760516 148.74418103 102.3932765 153.55872083 102.41447067 158.37342262 C102.43386757 162.90350387 102.43396764 167.43318612 102.41943741 171.96328163 C102.41734996 173.62247807 102.42204642 175.28169958 102.43415833 176.94085312 C102.55071225 194.01806652 102.55071225 194.01806652 95.96557617 201.53271484 C95.31459961 202.07154297 94.66362305 202.61037109 93.99291992 203.16552734 C93.02032227 203.99697266 93.02032227 203.99697266 92.02807617 204.84521484 C86.76651853 208.47049665 82.04473609 208.58766094 75.86083984 208.58105469 C74.95612442 208.58777191 74.051409 208.59448914 73.11927795 208.60140991 C70.13309207 208.62038287 67.14713106 208.62431387 64.16088867 208.62646484 C62.07969572 208.63289361 59.99850368 208.63962203 57.91731262 208.64663696 C53.5553681 208.65860823 49.19350276 208.66231797 44.83154297 208.66113281 C39.2530332 208.66092972 33.6750334 208.68822306 28.0966444 208.72267723 C23.7976907 208.74495913 19.49885943 208.74896994 15.1998539 208.74791336 C13.14383501 208.7502677 11.08781266 208.7590818 9.03185081 208.77457809 C6.15026951 208.79426241 3.26978406 208.78839013 0.38818359 208.77636719 C-0.4541684 208.7876062 -1.29652039 208.79884521 -2.16439819 208.8104248 C-8.96536712 208.7386329 -14.16993503 206.8315055 -19.31176758 202.32568359 C-20.12000977 201.34921875 -20.12000977 201.34921875 -20.94458008 200.35302734 C-21.49887695 199.70462891 -22.05317383 199.05623047 -22.62426758 198.38818359 C-25.83496943 193.72832712 -26.32218957 189.74313592 -26.33700562 184.13737488 C-26.34153673 183.42820917 -26.34606784 182.71904346 -26.35073626 181.98838788 C-26.36337159 179.61792431 -26.36176047 177.24769074 -26.36010742 174.87719727 C-26.36609325 173.17517299 -26.37289892 171.47315142 -26.38046265 169.77113342 C-26.39812506 165.15119045 -26.40281815 160.53132158 -26.40409422 155.9113481 C-26.40551632 153.02355095 -26.40978705 150.1357726 -26.41508865 147.24798012 C-26.43359022 137.16929555 -26.44175917 127.09066388 -26.44018555 117.01196289 C-26.43898434 107.62397036 -26.46008232 98.2362078 -26.49167287 88.84827346 C-26.51784436 80.7827106 -26.52855246 72.71722281 -26.52727473 64.65161783 C-26.52676532 59.83687366 -26.53243666 55.02233386 -26.55363083 50.20763206 C-26.57302773 45.67755082 -26.5731278 41.14786857 -26.55859756 36.61777306 C-26.55651012 34.95857662 -26.56120657 33.29935511 -26.57331848 31.64020157 C-26.6898724 14.56298817 -26.6898724 14.56298817 -20.10473633 7.04833984 C-19.45375977 6.50951172 -18.8027832 5.97068359 -18.13208008 5.41552734 C-17.48368164 4.86123047 -16.8352832 4.30693359 -16.16723633 3.73583984 C-10.90567868 0.11055804 -6.18389625 -0.00660626 0 0 Z M-8.06958008 19.29052734 C-10.11595409 23.20710048 -10.32257975 26.54840977 -10.33027649 30.92564392 C-10.33410204 31.57905103 -10.33792758 32.23245813 -10.34186906 32.90566546 C-10.35215853 35.08733947 -10.34821473 37.2687483 -10.34423828 39.45043945 C-10.34858699 41.01777896 -10.35377068 42.58511634 -10.35972595 44.15245056 C-10.37310976 48.40451184 -10.37369533 52.65648419 -10.37116265 56.90856242 C-10.37009257 60.4597891 -10.37497725 64.01099781 -10.37976807 67.56222063 C-10.39086102 75.94066403 -10.39130179 84.31906258 -10.38525391 92.69750977 C-10.37921276 101.33797256 -10.39152918 109.97827257 -10.41282398 118.6187076 C-10.43044211 126.04050736 -10.43644102 133.46225532 -10.43318623 140.88407522 C-10.43137364 145.31530373 -10.43400718 149.7464161 -10.44790077 154.17762566 C-10.46047804 158.34487538 -10.45853605 162.51187137 -10.44548988 166.6791172 C-10.44312436 168.20691895 -10.44585795 169.73473856 -10.45411301 171.26251984 C-10.4645847 173.35144927 -10.45647753 175.43952794 -10.44380188 177.52842712 C-10.44396962 178.69629729 -10.44413736 179.86416746 -10.44431019 181.06742764 C-10.01799123 184.73424937 -8.97616695 187.14577629 -7.06958008 190.29052734 C-3.07652425 192.75616236 1.1803737 192.5808829 5.74658203 192.56518555 C6.51796005 192.57029648 7.28933807 192.57540741 8.08409119 192.58067322 C10.62539502 192.59453476 13.16642661 192.59361511 15.70776367 192.59130859 C17.4798645 192.59519732 19.25196441 192.59953235 21.02406311 192.60429382 C24.73531111 192.61174856 28.44646397 192.6114701 32.15771484 192.60620117 C36.90682079 192.60040648 41.65553673 192.61734108 46.40457821 192.64054585 C50.0635047 192.65529773 53.72233757 192.65615292 57.38128853 192.65303612 C59.1319309 192.65354856 60.88257861 192.65877189 62.63319206 192.66884804 C65.08400493 192.68122396 67.53406196 192.6744143 69.98486328 192.6628418 C70.70349548 192.67048553 71.42212769 192.67812927 72.16253662 192.68600464 C76.80274847 192.63772506 80.07668682 191.91387581 83.93041992 189.29052734 C85.97679394 185.37395421 86.18341959 182.03264492 86.19111633 177.65541077 C86.19494188 177.00200366 86.19876743 176.34859655 86.2027089 175.67538923 C86.21299838 173.49371522 86.20905457 171.31230638 86.20507812 169.13061523 C86.20942684 167.56327573 86.21461052 165.99593835 86.2205658 164.42860413 C86.2339496 160.17654285 86.23453518 155.9245705 86.2320025 151.67249227 C86.23093241 148.12126559 86.23581709 144.57005688 86.24060792 141.01883405 C86.25170087 132.64039066 86.25214164 124.2619921 86.24609375 115.88354492 C86.2400526 107.24308213 86.25236902 98.60278211 86.27366382 89.96234709 C86.29128195 82.54054733 86.29728086 75.11879937 86.29402608 67.69697946 C86.29221349 63.26575096 86.29484702 58.83463859 86.30874062 54.40342903 C86.32131788 50.23617931 86.31937589 46.06918332 86.30632973 41.90193748 C86.30396421 40.37413573 86.30669779 38.84631613 86.31495285 37.31853485 C86.32542454 35.22960542 86.31731737 33.14152674 86.30464172 31.05262756 C86.30480947 29.88475739 86.30497721 28.71688723 86.30515003 27.51362705 C85.87883107 23.84680532 84.8370068 21.4352784 82.93041992 18.29052734 C78.93736409 15.82489233 74.68046615 16.00017178 70.11425781 16.01586914 C68.95719078 16.00820274 68.95719078 16.00820274 67.77674866 16.00038147 C65.23544483 15.98651993 62.69441324 15.98743958 60.15307617 15.98974609 C58.38097534 15.98585737 56.60887544 15.98152233 54.83677673 15.97676086 C51.12552873 15.96930613 47.41437587 15.96958459 43.703125 15.97485352 C38.95401906 15.98064821 34.20530311 15.96371361 29.45626163 15.94050884 C25.79733514 15.92575696 22.13850228 15.92490176 18.47955132 15.92801857 C16.72890894 15.92750612 14.97826123 15.9222828 13.22764778 15.91220665 C10.77683491 15.89983072 8.32677789 15.90664038 5.87597656 15.91821289 C4.79802826 15.90674728 4.79802826 15.90674728 3.69830322 15.89505005 C-0.94190863 15.94332963 -4.21584698 16.66717888 -8.06958008 19.29052734 Z " fill="#000000" transform="translate(218.069580078125,-0.29052734375)"/>
<path d="M0 0 C0.90471542 -0.00671722 1.80943085 -0.01343445 2.74156189 -0.02035522 C5.72774778 -0.03932819 8.71370879 -0.04325918 11.69995117 -0.04541016 C13.78114412 -0.05183893 15.86233617 -0.05856735 17.94352722 -0.06558228 C22.30547175 -0.07755354 26.66733708 -0.08126328 31.02929688 -0.08007812 C36.60780665 -0.07987503 42.18580645 -0.10716837 47.76419544 -0.14162254 C52.06314915 -0.16390444 56.36198042 -0.16791525 60.66098595 -0.16685867 C62.71700484 -0.16921302 64.77302719 -0.17802712 66.82898903 -0.19352341 C69.71057033 -0.21320773 72.59105578 -0.20733545 75.47265625 -0.1953125 C76.73618423 -0.21217102 76.73618423 -0.21217102 78.02523804 -0.22937012 C84.82620696 -0.15757821 90.03077487 1.74954919 95.17260742 6.25537109 C95.71143555 6.90634766 96.25026367 7.55732422 96.80541992 8.22802734 C97.3597168 8.87642578 97.91401367 9.52482422 98.48510742 10.19287109 C101.69580927 14.85272756 102.18302941 18.83791877 102.19784546 24.44367981 C102.20237657 25.15284552 102.20690768 25.86201123 102.2115761 26.5926668 C102.22421144 28.96313038 102.22260031 31.33336395 102.22094727 33.70385742 C102.22693309 35.4058817 102.23373876 37.10790327 102.24130249 38.80992126 C102.2589649 43.42986424 102.26365799 48.04973311 102.26493406 52.66970658 C102.26635616 55.55750374 102.2706269 58.44528209 102.2759285 61.33307457 C102.29443006 71.41175914 102.30259901 81.49039081 102.30102539 91.5690918 C102.29982418 100.95708433 102.32092216 110.34484689 102.35251272 119.73278123 C102.37868421 127.79834409 102.38939231 135.86383188 102.38811457 143.92943686 C102.38760516 148.74418103 102.3932765 153.55872083 102.41447067 158.37342262 C102.43386757 162.90350387 102.43396764 167.43318612 102.41943741 171.96328163 C102.41734996 173.62247807 102.42204642 175.28169958 102.43415833 176.94085312 C102.55071225 194.01806652 102.55071225 194.01806652 95.96557617 201.53271484 C95.31459961 202.07154297 94.66362305 202.61037109 93.99291992 203.16552734 C93.02032227 203.99697266 93.02032227 203.99697266 92.02807617 204.84521484 C86.76651853 208.47049665 82.04473609 208.58766094 75.86083984 208.58105469 C74.95612442 208.58777191 74.051409 208.59448914 73.11927795 208.60140991 C70.13309207 208.62038287 67.14713106 208.62431387 64.16088867 208.62646484 C62.07969572 208.63289361 59.99850368 208.63962203 57.91731262 208.64663696 C53.5553681 208.65860823 49.19350276 208.66231797 44.83154297 208.66113281 C39.2530332 208.66092972 33.6750334 208.68822306 28.0966444 208.72267723 C23.7976907 208.74495913 19.49885943 208.74896994 15.1998539 208.74791336 C13.14383501 208.7502677 11.08781266 208.7590818 9.03185081 208.77457809 C6.15026951 208.79426241 3.26978406 208.78839013 0.38818359 208.77636719 C-0.4541684 208.7876062 -1.29652039 208.79884521 -2.16439819 208.8104248 C-8.96536712 208.7386329 -14.16993503 206.8315055 -19.31176758 202.32568359 C-20.12000977 201.34921875 -20.12000977 201.34921875 -20.94458008 200.35302734 C-21.49887695 199.70462891 -22.05317383 199.05623047 -22.62426758 198.38818359 C-25.83496943 193.72832712 -26.32218957 189.74313592 -26.33700562 184.13737488 C-26.34153673 183.42820917 -26.34606784 182.71904346 -26.35073626 181.98838788 C-26.36337159 179.61792431 -26.36176047 177.24769074 -26.36010742 174.87719727 C-26.36609325 173.17517299 -26.37289892 171.47315142 -26.38046265 169.77113342 C-26.39812506 165.15119045 -26.40281815 160.53132158 -26.40409422 155.9113481 C-26.40551632 153.02355095 -26.40978705 150.1357726 -26.41508865 147.24798012 C-26.43359022 137.16929555 -26.44175917 127.09066388 -26.44018555 117.01196289 C-26.43898434 107.62397036 -26.46008232 98.2362078 -26.49167287 88.84827346 C-26.51784436 80.7827106 -26.52855246 72.71722281 -26.52727473 64.65161783 C-26.52676532 59.83687366 -26.53243666 55.02233386 -26.55363083 50.20763206 C-26.57302773 45.67755082 -26.5731278 41.14786857 -26.55859756 36.61777306 C-26.55651012 34.95857662 -26.56120657 33.29935511 -26.57331848 31.64020157 C-26.6898724 14.56298817 -26.6898724 14.56298817 -20.10473633 7.04833984 C-19.45375977 6.50951172 -18.8027832 5.97068359 -18.13208008 5.41552734 C-17.48368164 4.86123047 -16.8352832 4.30693359 -16.16723633 3.73583984 C-10.90567868 0.11055804 -6.18389625 -0.00660626 0 0 Z M-8.06958008 19.29052734 C-10.11595409 23.20710048 -10.32257975 26.54840977 -10.33027649 30.92564392 C-10.33410204 31.57905103 -10.33792758 32.23245813 -10.34186906 32.90566546 C-10.35215853 35.08733947 -10.34821473 37.2687483 -10.34423828 39.45043945 C-10.34858699 41.01777896 -10.35377068 42.58511634 -10.35972595 44.15245056 C-10.37310976 48.40451184 -10.37369533 52.65648419 -10.37116265 56.90856242 C-10.37009257 60.4597891 -10.37497725 64.01099781 -10.37976807 67.56222063 C-10.39086102 75.94066403 -10.39130179 84.31906258 -10.38525391 92.69750977 C-10.37921276 101.33797256 -10.39152918 109.97827257 -10.41282398 118.6187076 C-10.43044211 126.04050736 -10.43644102 133.46225532 -10.43318623 140.88407522 C-10.43137364 145.31530373 -10.43400718 149.7464161 -10.44790077 154.17762566 C-10.46047804 158.34487538 -10.45853605 162.51187137 -10.44548988 166.6791172 C-10.44312436 168.20691895 -10.44585795 169.73473856 -10.45411301 171.26251984 C-10.4645847 173.35144927 -10.45647753 175.43952794 -10.44380188 177.52842712 C-10.44396962 178.69629729 -10.44413736 179.86416746 -10.44431019 181.06742764 C-10.01799123 184.73424937 -8.97616695 187.14577629 -7.06958008 190.29052734 C-3.07652425 192.75616236 1.1803737 192.5808829 5.74658203 192.56518555 C6.51796005 192.57029648 7.28933807 192.57540741 8.08409119 192.58067322 C10.62539502 192.59453476 13.16642661 192.59361511 15.70776367 192.59130859 C17.4798645 192.59519732 19.25196441 192.59953235 21.02406311 192.60429382 C24.73531111 192.61174856 28.44646397 192.6114701 32.15771484 192.60620117 C36.90682079 192.60040648 41.65553673 192.61734108 46.40457821 192.64054585 C50.0635047 192.65529773 53.72233757 192.65615292 57.38128853 192.65303612 C59.1319309 192.65354856 60.88257861 192.65877189 62.63319206 192.66884804 C65.08400493 192.68122396 67.53406196 192.6744143 69.98486328 192.6628418 C70.70349548 192.67048553 71.42212769 192.67812927 72.16253662 192.68600464 C76.80274847 192.63772506 80.07668682 191.91387581 83.93041992 189.29052734 C85.97679394 185.37395421 86.18341959 182.03264492 86.19111633 177.65541077 C86.19494188 177.00200366 86.19876743 176.34859655 86.2027089 175.67538923 C86.21299838 173.49371522 86.20905457 171.31230638 86.20507812 169.13061523 C86.20942684 167.56327573 86.21461052 165.99593835 86.2205658 164.42860413 C86.2339496 160.17654285 86.23453518 155.9245705 86.2320025 151.67249227 C86.23093241 148.12126559 86.23581709 144.57005688 86.24060792 141.01883405 C86.25170087 132.64039066 86.25214164 124.2619921 86.24609375 115.88354492 C86.2400526 107.24308213 86.25236902 98.60278211 86.27366382 89.96234709 C86.29128195 82.54054733 86.29728086 75.11879937 86.29402608 67.69697946 C86.29221349 63.26575096 86.29484702 58.83463859 86.30874062 54.40342903 C86.32131788 50.23617931 86.31937589 46.06918332 86.30632973 41.90193748 C86.30396421 40.37413573 86.30669779 38.84631613 86.31495285 37.31853485 C86.32542454 35.22960542 86.31731737 33.14152674 86.30464172 31.05262756 C86.30480947 29.88475739 86.30497721 28.71688723 86.30515003 27.51362705 C85.87883107 23.84680532 84.8370068 21.4352784 82.93041992 18.29052734 C78.93736409 15.82489233 74.68046615 16.00017178 70.11425781 16.01586914 C68.95719078 16.00820274 68.95719078 16.00820274 67.77674866 16.00038147 C65.23544483 15.98651993 62.69441324 15.98743958 60.15307617 15.98974609 C58.38097534 15.98585737 56.60887544 15.98152233 54.83677673 15.97676086 C51.12552873 15.96930613 47.41437587 15.96958459 43.703125 15.97485352 C38.95401906 15.98064821 34.20530311 15.96371361 29.45626163 15.94050884 C25.79733514 15.92575696 22.13850228 15.92490176 18.47955132 15.92801857 C16.72890894 15.92750612 14.97826123 15.9222828 13.22764778 15.91220665 C10.77683491 15.89983072 8.32677789 15.90664038 5.87597656 15.91821289 C4.79802826 15.90674728 4.79802826 15.90674728 3.69830322 15.89505005 C-0.94190863 15.94332963 -4.21584698 16.66717888 -8.06958008 19.29052734 Z " fill="#000000" transform="translate(26.069580078125,-0.29052734375)"/>
<path d="M0 0 C4.00921462 1.82533349 5.04429822 3.22056251 7.17578125 7.03125 C7.49417969 7.59223389 7.81257813 8.15321777 8.140625 8.73120117 C8.84182066 9.97251152 9.5336023 11.21917348 10.21728516 12.47021484 C11.4644915 14.71327321 12.7744128 16.91193334 14.09375 19.11328125 C15.01832402 20.68928547 15.94151489 22.266102 16.86328125 23.84375 C17.30905518 24.58367187 17.7548291 25.32359375 18.21411133 26.0859375 C21.11649003 31.18491119 21.97252039 34.66097707 21.36328125 40.53125 C19.86328125 43.03125 19.86328125 43.03125 17.36328125 44.53125 C13.07693005 45.20395703 10.05658857 44.99345488 6.36328125 42.53125 C6.36181469 43.16809219 6.36034813 43.80493439 6.35883713 44.46107483 C6.32173833 59.97775919 6.26268318 75.49418266 6.17937851 91.01068115 C6.13961844 98.51444849 6.10721063 106.01811143 6.09228516 113.52197266 C6.07925281 120.06457585 6.05224811 126.60694902 6.00866818 133.14942265 C5.98608853 136.61165589 5.97036844 140.07360579 5.9713974 143.53591919 C5.97228546 147.40699471 5.94197035 151.27749381 5.90917969 155.1484375 C5.91672523 156.85855766 5.91672523 156.85855766 5.92442322 158.60322571 C5.822807 166.36544727 4.65626039 171.77345671 -0.6015625 177.7734375 C-1.25253906 178.31226563 -1.90351563 178.85109375 -2.57421875 179.40625 C-3.22261719 179.96054687 -3.87101562 180.51484375 -4.5390625 181.0859375 C-8.49368856 183.81072641 -12.0506623 184.78057104 -16.82250977 184.82177734 C-18.33416466 184.8409169 -18.33416466 184.8409169 -19.87635803 184.86044312 C-20.95356613 184.86266876 -22.03077423 184.86489441 -23.140625 184.8671875 C-24.81378029 184.8771727 -24.81378029 184.8771727 -26.52073669 184.88735962 C-28.87505445 184.89747057 -31.22940078 184.90217712 -33.58374023 184.90185547 C-37.18976704 184.90623851 -40.79457945 184.94260343 -44.40039062 184.98046875 C-46.6887979 184.98633515 -48.97721098 184.99030573 -51.265625 184.9921875 C-52.34485733 185.00655853 -53.42408966 185.02092957 -54.536026 185.03573608 C-55.54064377 185.02958282 -56.54526154 185.02342957 -57.58032227 185.01708984 C-58.46236832 185.01993988 -59.34441437 185.02278992 -60.25318909 185.02572632 C-63.41389748 184.37002 -64.61970305 182.99163026 -66.63671875 180.53125 C-67.16796875 178.53125 -67.16796875 178.53125 -67.13671875 176.53125 C-67.1521875 175.54125 -67.1521875 175.54125 -67.16796875 174.53125 C-66.34957389 171.45023407 -65.21023571 170.44395611 -62.63671875 168.53125 C-59.43512274 167.92832751 -56.26581636 167.97405215 -53.015625 167.9921875 C-52.07871323 167.98039459 -51.14180145 167.96860168 -50.17649841 167.95645142 C-47.18390307 167.92116472 -44.19200517 167.91202062 -41.19921875 167.90625 C-38.21021286 167.88989166 -35.22151845 167.86780362 -32.23265076 167.83462524 C-30.37405912 167.81504694 -28.51532509 167.80565476 -26.65663147 167.80770874 C-21.10982763 167.76216886 -16.75602652 167.65055777 -12.63671875 163.53125 C-12.33845715 161.32377955 -12.33845715 161.32377955 -12.39620972 158.7350769 C-12.39346039 157.72262909 -12.39071106 156.71018127 -12.38787842 155.66705322 C-12.39506897 154.55215515 -12.40225952 153.43725708 -12.40966797 152.28857422 C-12.40937592 151.1178537 -12.40908386 149.94713318 -12.40878296 148.74093628 C-12.40993956 145.52621203 -12.41998677 142.31166071 -12.43393087 139.09697104 C-12.44641283 135.73906292 -12.44760672 132.38115161 -12.44998169 129.02322388 C-12.45620394 122.66254983 -12.47262477 116.30194434 -12.49268067 109.94130051 C-12.51501655 102.70077276 -12.52602727 95.46024179 -12.53607154 88.21968818 C-12.55699039 73.32350389 -12.59218078 58.42738379 -12.63671875 43.53125 C-13.62671875 44.02625 -13.62671875 44.02625 -14.63671875 44.53125 C-21.82884718 45.11126036 -21.82884718 45.11126036 -25.07421875 42.78125 C-26.65756303 40.50123424 -27.24590346 39.24435043 -27.63671875 36.53125 C-25.63643065 28.53647954 -20.85463445 21.15424683 -16.76171875 14.09375 C-16.16230469 13.01931641 -15.56289063 11.94488281 -14.9453125 10.83789062 C-14.35105469 9.80986328 -13.75679688 8.78183594 -13.14453125 7.72265625 C-12.6148877 6.79654541 -12.08524414 5.87043457 -11.53955078 4.91625977 C-8.28229467 0.83361479 -5.16490201 -0.66572314 0 0 Z " fill="#000000" transform="translate(450.63671875,223.46875)"/>
<path d="M0 0 C4.24792284 1.11255122 6.7345585 4.96073774 9.07739258 8.4777832 C10.70293079 11.32285563 12.32804169 14.16726404 13.91870117 17.03198242 C14.94262251 18.86627479 15.99278564 20.68373403 17.04492188 22.50195312 C23.28928304 33.52825124 23.28928304 33.52825124 22.1328125 40.55859375 C20.6328125 43.05859375 20.6328125 43.05859375 18.1328125 44.55859375 C13.8464613 45.23130078 10.82611982 45.02079863 7.1328125 42.55859375 C7.06271301 57.85749059 7.00981972 73.15638003 6.97737598 88.45540142 C6.96191098 95.55910805 6.94082857 102.66271486 6.90649414 109.76635742 C6.87338471 116.61982483 6.85596645 123.47318838 6.84818077 130.32673073 C6.84263125 132.9434453 6.83179464 135.56015409 6.81562233 138.17682457 C6.79389338 141.83765377 6.79084375 145.49805239 6.79223633 149.15893555 C6.7814505 150.24434631 6.77066467 151.32975708 6.759552 152.44805908 C6.70562241 159.52539163 6.70562241 159.52539163 10.1328125 165.55859375 C14.60782196 168.3484422 19.78334217 167.83767081 24.88671875 167.83203125 C26.81185487 167.85231053 28.73698505 167.87316112 30.66210938 167.89453125 C33.68616788 167.91717416 36.70999132 167.93362205 39.73413086 167.93945312 C42.66042106 167.94895947 45.5856629 167.98270099 48.51171875 168.01953125 C49.86808189 168.01196304 49.86808189 168.01196304 51.25184631 168.00424194 C57.51939033 168.10268211 57.51939033 168.10268211 60.70092773 170.46728516 C62.24914929 172.72850695 62.67522205 173.84438277 62.6328125 176.55859375 C62.64828125 177.54859375 62.64828125 177.54859375 62.6640625 178.55859375 C61.8251586 181.7168202 60.82913115 182.63222935 58.1328125 184.55859375 C54.383968 185.17871846 50.65961827 185.1185467 46.8671875 185.08984375 C45.75982239 185.09367065 44.65245728 185.09749756 43.51153564 185.10144043 C41.1680002 185.10416216 38.82443452 185.09678283 36.48095703 185.08007812 C32.90978346 185.05875479 29.3406405 185.07983052 25.76953125 185.10546875 C23.48957892 185.10282393 21.20962784 185.09769578 18.9296875 185.08984375 C17.33710114 185.10198914 17.33710114 185.10198914 15.71234131 185.11437988 C8.10838264 185.01922209 2.76383193 183.74048012 -3.109375 178.59375 C-10.59164498 169.55416545 -11.01158763 161.49653262 -11.07250977 150.04541016 C-11.08240936 148.89361267 -11.09230896 147.74181519 -11.10250854 146.55511475 C-11.1340375 142.75681599 -11.15884702 138.95850474 -11.18359375 135.16015625 C-11.2041707 132.52313923 -11.22516737 129.88612546 -11.24656677 127.24911499 C-11.2963834 121.02321241 -11.34136291 114.79728473 -11.38458914 108.57133329 C-11.43405608 101.48061017 -11.48893899 94.38993217 -11.54426873 87.29925275 C-11.65791932 72.71907584 -11.76479489 58.13885401 -11.8671875 43.55859375 C-12.8571875 44.05359375 -12.8571875 44.05359375 -13.8671875 44.55859375 C-21.05931593 45.13860411 -21.05931593 45.13860411 -24.3046875 42.80859375 C-25.88790393 40.52876209 -26.47546125 39.27125931 -26.8671875 36.55859375 C-24.87302609 28.49728596 -19.97944976 21.13358026 -15.8046875 14.05859375 C-15.18013672 12.97578125 -14.55558594 11.89296875 -13.91210938 10.77734375 C-13.30818359 9.74609375 -12.70425781 8.71484375 -12.08203125 7.65234375 C-11.53667725 6.72099609 -10.99132324 5.78964844 -10.42944336 4.83007812 C-7.56145311 0.66008573 -4.84766639 0.29466207 0 0 Z " fill="#000000" transform="translate(65.8671875,223.44140625)"/>
<path d="M0 0 C1.00853027 -0.00700928 2.01706055 -0.01401855 3.05615234 -0.02124023 C6.39188114 -0.03885406 9.72676248 -0.02718497 13.0625 -0.01367188 C15.37890791 -0.0163658 17.69531472 -0.02024739 20.01171875 -0.02526855 C24.86729698 -0.03116822 29.72258096 -0.02258526 34.578125 -0.00390625 C40.80614646 0.01888316 47.03347845 0.00576265 53.26147461 -0.01819611 C58.04497485 -0.0326412 62.82831127 -0.02805393 67.61181641 -0.01768494 C69.90836671 -0.0150141 72.20493183 -0.01829988 74.50146484 -0.02760315 C77.7097114 -0.03774714 80.91683706 -0.02229671 84.125 0 C85.55271729 -0.01214539 85.55271729 -0.01214539 87.00927734 -0.02453613 C93.43945009 0.05837271 93.43945009 0.05837271 96.65039062 2.42492676 C98.17562415 4.68522053 98.60471773 5.81564333 98.5625 8.51757812 C98.57796875 9.50757813 98.57796875 9.50757813 98.59375 10.51757812 C97.77143622 13.61334764 96.65975504 14.60332765 94.0625 16.51757812 C90.75626211 17.12830568 87.47912473 17.06368931 84.125 17.03515625 C83.11646973 17.04216553 82.10793945 17.0491748 81.06884766 17.05639648 C77.73311886 17.07401031 74.39823752 17.06234122 71.0625 17.04882812 C68.74609209 17.05152205 66.42968528 17.05540364 64.11328125 17.0604248 C59.25770302 17.06632447 54.40241904 17.05774151 49.546875 17.0390625 C43.31885354 17.01627309 37.09152155 17.0293936 30.86352539 17.05335236 C26.08002515 17.06779745 21.29668873 17.06321018 16.51318359 17.05284119 C14.21663329 17.05017035 11.92006817 17.05345613 9.62353516 17.0627594 C6.4152886 17.07290339 3.20816294 17.05745296 0 17.03515625 C-0.95181152 17.04325317 -1.90362305 17.0513501 -2.88427734 17.05969238 C-9.31445009 16.97678354 -9.31445009 16.97678354 -12.52539062 14.61022949 C-14.05062415 12.34993572 -14.47971773 11.21951292 -14.4375 8.51757812 C-14.45296875 7.52757812 -14.45296875 7.52757812 -14.46875 6.51757812 C-12.53367962 -0.76739273 -6.18858895 -0.05264544 0 0 Z " fill="#000000" transform="translate(213.9375,443.482421875)"/>
<path d="M0 0 C1.00853027 -0.00700928 2.01706055 -0.01401855 3.05615234 -0.02124023 C6.39188114 -0.03885406 9.72676248 -0.02718497 13.0625 -0.01367188 C15.37890791 -0.0163658 17.69531472 -0.02024739 20.01171875 -0.02526855 C24.86729698 -0.03116822 29.72258096 -0.02258526 34.578125 -0.00390625 C40.80614646 0.01888316 47.03347845 0.00576265 53.26147461 -0.01819611 C58.04497485 -0.0326412 62.82831127 -0.02805393 67.61181641 -0.01768494 C69.90836671 -0.0150141 72.20493183 -0.01829988 74.50146484 -0.02760315 C77.7097114 -0.03774714 80.91683706 -0.02229671 84.125 0 C85.55271729 -0.01214539 85.55271729 -0.01214539 87.00927734 -0.02453613 C93.43945009 0.05837271 93.43945009 0.05837271 96.65039062 2.42492676 C98.17562415 4.68522053 98.60471773 5.81564333 98.5625 8.51757812 C98.57796875 9.50757813 98.57796875 9.50757813 98.59375 10.51757812 C97.77143622 13.61334764 96.65975504 14.60332765 94.0625 16.51757812 C90.75626211 17.12830568 87.47912473 17.06368931 84.125 17.03515625 C83.11646973 17.04216553 82.10793945 17.0491748 81.06884766 17.05639648 C77.73311886 17.07401031 74.39823752 17.06234122 71.0625 17.04882812 C68.74609209 17.05152205 66.42968528 17.05540364 64.11328125 17.0604248 C59.25770302 17.06632447 54.40241904 17.05774151 49.546875 17.0390625 C43.31885354 17.01627309 37.09152155 17.0293936 30.86352539 17.05335236 C26.08002515 17.06779745 21.29668873 17.06321018 16.51318359 17.05284119 C14.21663329 17.05017035 11.92006817 17.05345613 9.62353516 17.0627594 C6.4152886 17.07290339 3.20816294 17.05745296 0 17.03515625 C-0.95181152 17.04325317 -1.90362305 17.0513501 -2.88427734 17.05969238 C-9.31445009 16.97678354 -9.31445009 16.97678354 -12.52539062 14.61022949 C-14.05062415 12.34993572 -14.47971773 11.21951292 -14.4375 8.51757812 C-14.45296875 7.52757812 -14.45296875 7.52757812 -14.46875 6.51757812 C-12.53367962 -0.76739273 -6.18858895 -0.05264544 0 0 Z " fill="#000000" transform="translate(213.9375,411.482421875)"/>
<path d="M0 0 C1.00853027 -0.00700928 2.01706055 -0.01401855 3.05615234 -0.02124023 C6.39188114 -0.03885406 9.72676248 -0.02718497 13.0625 -0.01367188 C15.37890791 -0.0163658 17.69531472 -0.02024739 20.01171875 -0.02526855 C24.86729698 -0.03116822 29.72258096 -0.02258526 34.578125 -0.00390625 C40.80614646 0.01888316 47.03347845 0.00576265 53.26147461 -0.01819611 C58.04497485 -0.0326412 62.82831127 -0.02805393 67.61181641 -0.01768494 C69.90836671 -0.0150141 72.20493183 -0.01829988 74.50146484 -0.02760315 C77.7097114 -0.03774714 80.91683706 -0.02229671 84.125 0 C85.55271729 -0.01214539 85.55271729 -0.01214539 87.00927734 -0.02453613 C93.43945009 0.05837271 93.43945009 0.05837271 96.65039062 2.42492676 C98.17562415 4.68522053 98.60471773 5.81564333 98.5625 8.51757812 C98.57796875 9.50757813 98.57796875 9.50757813 98.59375 10.51757812 C97.77143622 13.61334764 96.65975504 14.60332765 94.0625 16.51757812 C90.75626211 17.12830568 87.47912473 17.06368931 84.125 17.03515625 C83.11646973 17.04216553 82.10793945 17.0491748 81.06884766 17.05639648 C77.73311886 17.07401031 74.39823752 17.06234122 71.0625 17.04882812 C68.74609209 17.05152205 66.42968528 17.05540364 64.11328125 17.0604248 C59.25770302 17.06632447 54.40241904 17.05774151 49.546875 17.0390625 C43.31885354 17.01627309 37.09152155 17.0293936 30.86352539 17.05335236 C26.08002515 17.06779745 21.29668873 17.06321018 16.51318359 17.05284119 C14.21663329 17.05017035 11.92006817 17.05345613 9.62353516 17.0627594 C6.4152886 17.07290339 3.20816294 17.05745296 0 17.03515625 C-0.95181152 17.04325317 -1.90362305 17.0513501 -2.88427734 17.05969238 C-9.31445009 16.97678354 -9.31445009 16.97678354 -12.52539062 14.61022949 C-14.05062415 12.34993572 -14.47971773 11.21951292 -14.4375 8.51757812 C-14.45296875 7.52757812 -14.45296875 7.52757812 -14.46875 6.51757812 C-12.53367962 -0.76739273 -6.18858895 -0.05264544 0 0 Z " fill="#000000" transform="translate(213.9375,379.482421875)"/>
<path d="M0 0 C1.00853027 -0.00700928 2.01706055 -0.01401855 3.05615234 -0.02124023 C6.39188114 -0.03885406 9.72676248 -0.02718497 13.0625 -0.01367188 C15.37890791 -0.0163658 17.69531472 -0.02024739 20.01171875 -0.02526855 C24.86729698 -0.03116822 29.72258096 -0.02258526 34.578125 -0.00390625 C40.80614646 0.01888316 47.03347845 0.00576265 53.26147461 -0.01819611 C58.04497485 -0.0326412 62.82831127 -0.02805393 67.61181641 -0.01768494 C69.90836671 -0.0150141 72.20493183 -0.01829988 74.50146484 -0.02760315 C77.7097114 -0.03774714 80.91683706 -0.02229671 84.125 0 C85.55271729 -0.01214539 85.55271729 -0.01214539 87.00927734 -0.02453613 C93.43945009 0.05837271 93.43945009 0.05837271 96.65039062 2.42492676 C98.17562415 4.68522053 98.60471773 5.81564333 98.5625 8.51757812 C98.57796875 9.50757813 98.57796875 9.50757813 98.59375 10.51757812 C97.77143622 13.61334764 96.65975504 14.60332765 94.0625 16.51757812 C90.75626211 17.12830568 87.47912473 17.06368931 84.125 17.03515625 C83.11646973 17.04216553 82.10793945 17.0491748 81.06884766 17.05639648 C77.73311886 17.07401031 74.39823752 17.06234122 71.0625 17.04882812 C68.74609209 17.05152205 66.42968528 17.05540364 64.11328125 17.0604248 C59.25770302 17.06632447 54.40241904 17.05774151 49.546875 17.0390625 C43.31885354 17.01627309 37.09152155 17.0293936 30.86352539 17.05335236 C26.08002515 17.06779745 21.29668873 17.06321018 16.51318359 17.05284119 C14.21663329 17.05017035 11.92006817 17.05345613 9.62353516 17.0627594 C6.4152886 17.07290339 3.20816294 17.05745296 0 17.03515625 C-0.95181152 17.04325317 -1.90362305 17.0513501 -2.88427734 17.05969238 C-9.31445009 16.97678354 -9.31445009 16.97678354 -12.52539062 14.61022949 C-14.05062415 12.34993572 -14.47971773 11.21951292 -14.4375 8.51757812 C-14.45296875 7.52757812 -14.45296875 7.52757812 -14.46875 6.51757812 C-12.53367962 -0.76739273 -6.18858895 -0.05264544 0 0 Z " fill="#000000" transform="translate(213.9375,347.482421875)"/>
<path d="M0 0 C1.051875 -0.00515625 2.10375 -0.0103125 3.1875 -0.015625 C4.280625 -0.00015625 5.37375 0.0153125 6.5 0.03125 C8.1396875 0.00804687 8.1396875 0.00804687 9.8125 -0.015625 C10.864375 -0.01046875 11.91625 -0.0053125 13 0 C14.43859375 0.00676758 14.43859375 0.00676758 15.90625 0.01367188 C19.21298564 0.673525 20.40908706 1.94238555 22.5 4.53125 C23.03125 6.53125 23.03125 6.53125 23 8.53125 C23.0103125 9.19125 23.020625 9.85125 23.03125 10.53125 C22.2561666 13.44921104 20.80895833 14.6243588 18.5 16.53125 C15.90625 17.04882812 15.90625 17.04882812 13 17.0625 C11.948125 17.06765625 10.89625 17.0728125 9.8125 17.078125 C8.719375 17.06265625 7.62625 17.0471875 6.5 17.03125 C4.8603125 17.05445313 4.8603125 17.05445313 3.1875 17.078125 C2.135625 17.07296875 1.08375 17.0678125 0 17.0625 C-0.9590625 17.05798828 -1.918125 17.05347656 -2.90625 17.04882812 C-6.21298564 16.388975 -7.40908706 15.12011445 -9.5 12.53125 C-10.03125 10.53125 -10.03125 10.53125 -10 8.53125 C-10.01546875 7.54125 -10.01546875 7.54125 -10.03125 6.53125 C-8.65240655 1.34030994 -4.94094259 0.02324368 0 0 Z " fill="#000000" transform="translate(441.5,167.46875)"/>
<path d="M0 0 C1.051875 -0.00515625 2.10375 -0.0103125 3.1875 -0.015625 C4.280625 -0.00015625 5.37375 0.0153125 6.5 0.03125 C8.1396875 0.00804687 8.1396875 0.00804687 9.8125 -0.015625 C10.864375 -0.01046875 11.91625 -0.0053125 13 0 C14.43859375 0.00676758 14.43859375 0.00676758 15.90625 0.01367188 C19.21298564 0.673525 20.40908706 1.94238555 22.5 4.53125 C23.03125 6.53125 23.03125 6.53125 23 8.53125 C23.0103125 9.19125 23.020625 9.85125 23.03125 10.53125 C22.2561666 13.44921104 20.80895833 14.6243588 18.5 16.53125 C15.90625 17.04882812 15.90625 17.04882812 13 17.0625 C11.948125 17.06765625 10.89625 17.0728125 9.8125 17.078125 C8.719375 17.06265625 7.62625 17.0471875 6.5 17.03125 C4.8603125 17.05445313 4.8603125 17.05445313 3.1875 17.078125 C2.135625 17.07296875 1.08375 17.0678125 0 17.0625 C-0.9590625 17.05798828 -1.918125 17.05347656 -2.90625 17.04882812 C-6.21298564 16.388975 -7.40908706 15.12011445 -9.5 12.53125 C-10.03125 10.53125 -10.03125 10.53125 -10 8.53125 C-10.01546875 7.54125 -10.01546875 7.54125 -10.03125 6.53125 C-8.65240655 1.34030994 -4.94094259 0.02324368 0 0 Z " fill="#000000" transform="translate(249.5,167.46875)"/>
<path d="M0 0 C1.051875 -0.00515625 2.10375 -0.0103125 3.1875 -0.015625 C4.280625 -0.00015625 5.37375 0.0153125 6.5 0.03125 C8.1396875 0.00804687 8.1396875 0.00804687 9.8125 -0.015625 C10.864375 -0.01046875 11.91625 -0.0053125 13 0 C14.43859375 0.00676758 14.43859375 0.00676758 15.90625 0.01367188 C19.21298564 0.673525 20.40908706 1.94238555 22.5 4.53125 C23.03125 6.53125 23.03125 6.53125 23 8.53125 C23.0103125 9.19125 23.020625 9.85125 23.03125 10.53125 C22.2561666 13.44921104 20.80895833 14.6243588 18.5 16.53125 C15.90625 17.04882812 15.90625 17.04882812 13 17.0625 C11.948125 17.06765625 10.89625 17.0728125 9.8125 17.078125 C8.719375 17.06265625 7.62625 17.0471875 6.5 17.03125 C4.8603125 17.05445313 4.8603125 17.05445313 3.1875 17.078125 C2.135625 17.07296875 1.08375 17.0678125 0 17.0625 C-0.9590625 17.05798828 -1.918125 17.05347656 -2.90625 17.04882812 C-6.21298564 16.388975 -7.40908706 15.12011445 -9.5 12.53125 C-10.03125 10.53125 -10.03125 10.53125 -10 8.53125 C-10.01546875 7.54125 -10.01546875 7.54125 -10.03125 6.53125 C-8.65240655 1.34030994 -4.94094259 0.02324368 0 0 Z " fill="#000000" transform="translate(57.5,167.46875)"/>
<path d="M0 0 C3.27522945 2.15475621 3.90229594 3.6641423 5 7.4375 C5 11 5 11 3.5 13.875 C0.25293011 16.6350094 -1.76307962 17 -6 17 C-8.94755732 15.65437601 -10.54277272 14.91445456 -12 12 C-12.49055907 7.66672826 -12.47744439 5.67999656 -9.9375 2.0625 C-6.25937488 -0.52001338 -4.40768137 -0.72125695 0 0 Z " fill="#000000" transform="translate(329,469)"/>
<path d="M0 0 C2.5 1.5 2.5 1.5 4 4 C4.791013 8.02098277 4.62153384 10.96411027 2.5 14.5 C-1.03588973 16.62153384 -3.97901723 16.791013 -8 16 C-10.5 14.5 -10.5 14.5 -12 12 C-12.791013 7.97901723 -12.62153384 5.03588973 -10.5 1.5 C-6.96411027 -0.62153384 -4.02098277 -0.791013 0 0 Z " fill="#000000" transform="translate(452,24)"/>
<path d="M0 0 C2.5 1.5 2.5 1.5 4 4 C4.791013 8.02098277 4.62153384 10.96411027 2.5 14.5 C-1.03588973 16.62153384 -3.97901723 16.791013 -8 16 C-10.5 14.5 -10.5 14.5 -12 12 C-12.791013 7.97901723 -12.62153384 5.03588973 -10.5 1.5 C-6.96411027 -0.62153384 -4.02098277 -0.791013 0 0 Z " fill="#000000" transform="translate(260,24)"/>
<path d="M0 0 C2.5 1.5 2.5 1.5 4 4 C4.791013 8.02098277 4.62153384 10.96411027 2.5 14.5 C-1.03588973 16.62153384 -3.97901723 16.791013 -8 16 C-10.5 14.5 -10.5 14.5 -12 12 C-12.791013 7.97901723 -12.62153384 5.03588973 -10.5 1.5 C-6.96411027 -0.62153384 -4.02098277 -0.791013 0 0 Z " fill="#000000" transform="translate(68,24)"/>
</svg>