<!-- highstreet technologies GmbH colour scheme 
	Grey	#565656
	LBlue #36A9E1
	DBlue #246DA2
	Green #003F2C / #006C4B
	Yellw #C8D400
	Red 	#D81036
-->
<!--
<svg xmlns="http://www.w3.org/2000/svg" xmlns:xlink="http://www.w3.org/1999/xlink" viewBox="0 0 512 512">

<g>
<path fill="#C8D400" d="M192,224c-17.672,0-32,14.328-32,32s14.328,32,32,32h128c17.672,0,32-14.328,32-32s-14.328-32-32-32H192z"/>

<path fill="#C8D400" d="M256,320h-64c-17.672,0-32,14.328-32,32s14.328,32,32,32h64c17.672,0,32-14.328,32-32S273.672,320,256,320z"/>

<path fill="#565656" d="M416,32h-80c0-17.674-11.938-32-26.668-32H202.668C187.938,0,176,14.326,176,32H96c-17.672,0-32,14.328-32,32v416
		c0,17.672,14.328,32,32,32h320c17.672,0,32-14.328,32-32V64C448,46.328,433.672,32,416,32z M256,32c17.672,0,32,14.326,32,32
		c0,17.673-14.328,32-32,32s-32-14.327-32-32C224,46.326,238.328,32,256,32z M384,448H128V96h48v32h160V96h48V448z"/>
</g>
</svg> -->
<!-- <?xml version="1.0" standalone="no"?>
<!DOCTYPE svg PUBLIC "-//W3C//DTD SVG 20010904//EN"
 "http://www.w3.org/TR/2001/REC-SVG-20010904/DTD/svg10.dtd"> -->
<svg version="1.0" xmlns="http://www.w3.org/2000/svg"
 viewBox="0 0 225.000000 225.000000"
 preserveAspectRatio="xMidYMid meet">

<g transform="translate(0.000000,225.000000) scale(0.100000,-0.100000)"
fill="#000000" stroke="none">
<path d="M1075 2238 c-70 -25 -125 -91 -125 -152 l0 -26 -100 0 c-88 0 -100
-2 -110 -19 -13 -25 -13 -201 0 -221 8 -13 62 -15 369 -17 255 -2 368 1 386 9
24 11 25 14 25 118 0 69 -4 110 -12 118 -8 8 -46 12 -105 12 -67 0 -95 4 -97
13 -25 96 -43 121 -111 153 -54 26 -74 28 -120 12z m90 -94 c26 -10 48 -62 41
-99 -9 -44 -47 -69 -94 -61 -46 7 -62 24 -69 72 -9 67 55 113 122 88z" fill="#FF5733"/>
<path d="M455 2014 c-5 -1 -26 -5 -47 -8 -53 -9 -105 -66 -117 -130 -14 -72
-14 -1676 0 -1739 16 -67 80 -123 152 -132 29 -3 353 -5 722 -3 l670 3 41 24
c24 13 52 41 65 65 l24 41 0 875 c0 816 -1 877 -18 907 -43 80 -95 101 -242
99 l-90 -1 -3 -47 -3 -48 106 0 c99 0 107 -2 130 -25 l25 -24 0 -861 0 -861
-25 -24 -24 -25 -696 0 -696 0 -24 25 -25 24 0 861 0 861 25 24 c23 23 31 25
130 25 l105 0 0 48 0 47 -88 1 c-48 1 -91 0 -97 -2z" fill="#33A1FF"/>
<path d="M720 1551 c-53 -16 -87 -41 -116 -83 -25 -38 -29 -52 -29 -115 0 -64
3 -75 31 -114 97 -134 286 -115 355 36 69 151 -82 324 -241 276z m190 -100
c14 -27 16 -24 -45 -92 -31 -34 -65 -79 -77 -100 -17 -31 -28 -39 -49 -39 -22
0 -37 13 -78 68 -51 68 -61 98 -39 120 23 23 48 12 80 -33 31 -44 32 -44 46
-22 8 12 35 43 61 70 49 51 83 60 101 28z" fill="#33FF57"/>
<path d="M1087 1433 c-4 -3 -7 -17 -7 -30 l0 -23 301 0 300 0 -3 28 -3 27
-291 3 c-160 1 -293 -1 -297 -5z" fill="#FF33A1"/>
<path d="M1214 1185 c-4 -8 -4 -22 0 -30 5 -13 40 -15 236 -15 l231 0 -3 28
-3 27 -228 3 c-196 2 -228 0 -233 -13z" fill="#FF8C33"/>
<path d="M681 1007 c-24 -12 -57 -42 -75 -66 -28 -39 -31 -50 -31 -115 0 -63
4 -78 27 -112 47 -67 90 -89 173 -89 63 0 76 3 109 28 83 64 114 157 82 242
-45 116 -179 169 -285 112z m226 -87 c14 -28 11 -34 -47 -97 -25 -26 -58 -67
-73 -90 -41 -64 -63 -59 -126 26 -28 38 -51 77 -51 88 0 24 18 43 41 43 17 0
63 -47 71 -72 3 -7 34 19 75 61 40 41 77 71 84 69 8 -3 19 -15 26 -28z" fill="#A133FF"/>
<path d="M1082 923 l3 -28 295 0 295 0 3 28 3 27 -301 0 -301 0 3 -27z"  fill="#33FF8C"/>
<path d="M1217 704 c-4 -4 -7 -18 -7 -31 l0 -23 236 0 235 0 -3 28 -3 27 -226
3 c-124 1 -228 -1 -232 -4z" fill="#FF338C"/>
<path d="M574 445 c-4 -8 -4 -22 0 -30 5 -13 73 -15 553 -13 l548 3 3 28 3 27
-551 0 c-480 0 -551 -2 -556 -15z" fill="blue"/>
</g>
</svg>
