<?xml version="1.0" encoding="UTF-8"?>
<svg version="1.1" xmlns="http://www.w3.org/2000/svg" width="512" height="512">
<path d="M0 0 C4.06051365 2.35747771 7.11905902 4.54746321 8.8203125 9.05078125 C10.19368808 14.88762748 10.45469207 19.77192393 7.37890625 25.05078125 C3.56311992 29.94722887 -1.39435939 33.74530175 -6.15234375 37.68359375 C-41.54999646 67.59498606 -65.06469603 114.73464138 -72.1796875 160.05078125 C-72.35338867 161.10160889 -72.52708984 162.15243652 -72.70605469 163.23510742 C-74.30259533 173.79689253 -74.5801614 184.19820927 -74.5546875 194.86328125 C-74.55337326 196.21280884 -74.55337326 196.21280884 -74.55203247 197.58959961 C-74.45303977 228.52464656 -68.35041859 257.94726294 -55.1796875 286.05078125 C-54.85887207 286.74461914 -54.53805664 287.43845703 -54.20751953 288.15332031 C-30.36319218 339.28117713 13.74635256 378.26033059 66.2890625 398.1953125 C83.42117069 404.32472147 101.69367503 408.41808514 119.8203125 410.05078125 C120.55266113 410.1178125 121.28500977 410.18484375 122.03955078 410.25390625 C180.003774 415.20424845 236.01462743 395.6313894 280.19995117 358.58520508 C315.43942032 328.67567589 339.69970951 287.06083137 349.8203125 242.05078125 C350.03204102 241.11186035 350.24376953 240.17293945 350.46191406 239.20556641 C356.57003645 210.60580793 356.35101088 178.51738171 349.8203125 150.05078125 C349.63307617 149.20515625 349.44583984 148.35953125 349.25292969 147.48828125 C342.28247223 116.66898748 328.49797521 87.04446349 308.22949219 62.74072266 C306.79046813 61.01499076 305.37208987 59.27349292 303.953125 57.53125 C295.57305737 47.37651406 286.15477877 38.56485535 276.1328125 30.05078125 C271.48402341 25.98805745 269.32958459 22.42679122 268.7578125 16.1015625 C268.90695718 11.20775268 271.14355584 7.83165432 274.2578125 4.23828125 C278.78047133 0.37747494 282.29357358 -0.53837282 288.18359375 -0.375 C297.61157735 1.14744476 305.21056248 10.67368 311.8203125 17.05078125 C312.48691895 17.69015625 313.15352539 18.32953125 313.84033203 18.98828125 C323.31079649 28.11519018 332.11110187 37.38353198 339.8203125 48.05078125 C340.59632813 49.11683594 341.37234375 50.18289062 342.171875 51.28125 C347.83993438 59.27691452 352.93224629 67.56449342 357.8203125 76.05078125 C358.47773438 77.17484375 359.13515625 78.29890625 359.8125 79.45703125 C377.29621531 110.63281277 387.83528607 148.02350735 388.0234375 183.84375 C388.03049713 184.74420044 388.03755676 185.64465088 388.04483032 186.5723877 C388.2741549 224.40646231 388.2741549 224.40646231 384.8203125 241.05078125 C384.51432129 242.54134033 384.51432129 242.54134033 384.20214844 244.06201172 C375.05339219 287.32217865 356.37855365 326.95290624 326.8203125 360.05078125 C326.06363281 360.91703125 325.30695313 361.78328125 324.52734375 362.67578125 C315.68877056 372.68761636 306.33412317 381.81256248 295.8203125 390.05078125 C294.85867188 390.829375 293.89703125 391.60796875 292.90625 392.41015625 C253.6735363 423.59768056 202.46958992 443.98895046 152.02734375 444.25390625 C150.67666809 444.2644957 150.67666809 444.2644957 149.29870605 444.27529907 C111.46463144 444.50462365 111.46463144 444.50462365 94.8203125 441.05078125 C93.32975342 440.74479004 93.32975342 440.74479004 91.80908203 440.43261719 C48.5489151 431.28386094 8.91818751 412.6090224 -24.1796875 383.05078125 C-25.0459375 382.29410156 -25.9121875 381.53742188 -26.8046875 380.7578125 C-36.81652261 371.91923931 -45.94146873 362.56459192 -54.1796875 352.05078125 C-54.95828125 351.08914063 -55.736875 350.1275 -56.5390625 349.13671875 C-87.51532388 310.16976574 -107.98373474 259.1423651 -108.41796875 209.05859375 C-108.4277626 208.12313721 -108.43755646 207.18768066 -108.44764709 206.22387695 C-108.61717038 185.82960328 -108.51906858 166.07178774 -104.1796875 146.05078125 C-103.97069824 145.0457959 -103.76170898 144.04081055 -103.54638672 143.00537109 C-95.71506589 106.14830088 -79.23695569 70.15663355 -55.1796875 41.05078125 C-54.74446777 40.52081543 -54.30924805 39.99084961 -53.86083984 39.44482422 C-36.88003233 18.82221704 -36.88003233 18.82221704 -27.078125 10.640625 C-25.74141449 9.52119871 -24.43636197 8.36342039 -23.15625 7.1796875 C-16.68042516 1.21250024 -9.02992254 -3.93238562 0 0 Z " fill="#000000" transform="translate(116.1796875,59.94921875)"/>
<path d="M0 0 C4.96551149 2.30541605 7.41952586 5.22142272 10 10 C10.57031984 13.31856469 10.54025527 16.58355819 10.50793457 19.94433594 C10.51417453 20.94161587 10.5204145 21.9388958 10.52684355 22.96639633 C10.54279009 26.3059635 10.53016233 29.64480249 10.51757812 32.984375 C10.52299848 35.37943955 10.53012065 37.77450077 10.53881836 40.16955566 C10.5551699 45.99819118 10.55276898 51.82659556 10.5411678 57.65523815 C10.53212907 62.39285662 10.53091136 67.13041737 10.53526306 71.86804199 C10.53587599 72.54268486 10.53648893 73.21732772 10.53712043 73.91241431 C10.53839935 75.28299874 10.5396962 76.65358315 10.5410108 78.02416754 C10.55241314 90.8719177 10.53930836 103.71955364 10.51780933 116.56728506 C10.49993862 127.58788265 10.50304283 138.6083117 10.52148438 149.62890625 C10.54289724 162.43111572 10.55131454 175.23322511 10.53903532 188.03544998 C10.53776114 189.40095264 10.53650366 190.76645532 10.53526306 192.13195801 C10.53464596 192.80378671 10.53402886 193.47561542 10.53339306 194.16780257 C10.52994139 198.89896153 10.53576452 203.63005694 10.54518127 208.36120605 C10.55672807 214.73064237 10.54873492 221.09976012 10.52560425 227.46916199 C10.52031097 229.80807465 10.52184144 232.14701409 10.53065491 234.48591614 C10.54156902 237.6761952 10.52789568 240.86545041 10.50793457 244.05566406 C10.51685746 244.98348568 10.52578034 245.9113073 10.53497362 246.86724472 C10.46751184 252.41756601 9.70168756 255.59715821 6 260 C2.18069828 263.62833663 -0.88279006 264.31000458 -6 264.5 C-11.11720994 264.31000458 -14.18069828 263.62833663 -18 260 C-22.42955416 254.73142294 -22.57117567 250.63161444 -22.50793457 244.05566406 C-22.51729451 242.55974417 -22.51729451 242.55974417 -22.52684355 241.03360367 C-22.54279009 237.6940365 -22.53016233 234.35519751 -22.51757812 231.015625 C-22.52299848 228.62056045 -22.53012065 226.22549923 -22.53881836 223.83044434 C-22.5551699 218.00180882 -22.55276898 212.17340444 -22.5411678 206.34476185 C-22.53212907 201.60714338 -22.53091136 196.86958263 -22.53526306 192.13195801 C-22.53587599 191.45731514 -22.53648893 190.78267228 -22.53712043 190.08758569 C-22.53839935 188.71700126 -22.5396962 187.34641685 -22.5410108 185.97583246 C-22.55241314 173.1280823 -22.53930836 160.28044636 -22.51780933 147.43271494 C-22.49993862 136.41211735 -22.50304283 125.3916883 -22.52148438 114.37109375 C-22.54289724 101.56888428 -22.55131454 88.76677489 -22.53903532 75.96455002 C-22.53776114 74.59904736 -22.53650366 73.23354468 -22.53526306 71.86804199 C-22.53464596 71.19621329 -22.53402886 70.52438458 -22.53339306 69.83219743 C-22.52994139 65.10103847 -22.53576452 60.36994306 -22.54518127 55.63879395 C-22.55672807 49.26935763 -22.54873492 42.90023988 -22.52560425 36.53083801 C-22.52031097 34.19192535 -22.52184144 31.85298591 -22.53065491 29.51408386 C-22.54156902 26.3238048 -22.52789568 23.13454959 -22.50793457 19.94433594 C-22.51685746 19.01651432 -22.52578034 18.0886927 -22.53497362 17.13275528 C-22.46751184 11.58243399 -21.70168756 8.40284179 -18 4 C-12.72867143 -1.00776214 -6.89190982 -0.92775709 0 0 Z " fill="#000000" transform="translate(262,8)"/>
</svg>
