<?xml version="1.0" encoding="UTF-8"?>
<svg version="1.1" xmlns="http://www.w3.org/2000/svg" width="512" height="512">
<path d="M0 0 C15.84 0 31.68 0 48 0 C48 8.91 48 17.82 48 27 C49.98 27.33 51.96 27.66 54 28 C63.34737452 31.18427044 72.44823145 36.7160466 80 43 C85.09331922 41.31239323 89.26474395 38.33100659 93.6875 35.375 C95.20946422 34.35781422 96.7340792 33.34457986 98.26171875 32.3359375 C98.93162842 31.88782715 99.60153809 31.4397168 100.29174805 30.97802734 C102 30 102 30 104 30 C105.15405273 31.47436523 105.15405273 31.47436523 106.43359375 33.55859375 C106.9126416 34.32937256 107.39168945 35.10015137 107.88525391 35.89428711 C108.39749512 36.73354736 108.90973633 37.57280762 109.4375 38.4375 C110.51595694 40.17768494 111.59540636 41.91725515 112.67578125 43.65625 C113.22572754 44.54441406 113.77567383 45.43257812 114.34228516 46.34765625 C117.33250109 51.13200174 120.42694268 55.84869745 123.52124023 60.56616211 C123.94993408 61.22366455 124.37862793 61.88116699 124.8203125 62.55859375 C125.38129639 63.41408813 125.38129639 63.41408813 125.95361328 64.28686523 C127.08673488 66.14200155 128.05344776 68.04402391 129 70 C122.13815707 74.89706361 115.14695431 79.52975671 108 84 C108.14363527 85.37523135 108.29003517 86.75017402 108.4375 88.125 C108.51871094 88.89070313 108.59992188 89.65640625 108.68359375 90.4453125 C108.96815044 93.01761117 108.96815044 93.01761117 109.53125 95.59375 C110.20966802 100.52358761 110.10417776 105.4057292 110.0625 110.375 C110.05798828 111.39722656 110.05347656 112.41945313 110.04882812 113.47265625 C110.03710317 115.98179623 110.01916965 118.49090586 110 121 C115.28 119.35 120.56 117.7 126 116 C127.68899774 107.17114816 129.31120001 98.37870867 130.5703125 89.4765625 C131 87 131 87 132 85 C137.96313166 84.97535426 143.92623395 84.957166 149.8894043 84.94506836 C151.91968298 84.94002722 153.94995802 84.93319443 155.98022461 84.92456055 C158.89177347 84.91248533 161.8032745 84.90676966 164.71484375 84.90234375 C166.08514992 84.89460182 166.08514992 84.89460182 167.48313904 84.88670349 C169.65575427 84.88650832 171.82827296 84.93788195 174 85 C175.78642948 86.78642948 175.59596815 89.47490212 175.9375 91.8984375 C176.19660156 93.70054688 176.19660156 93.70054688 176.4609375 95.5390625 C176.63882812 96.80492188 176.81671875 98.07078125 177 99.375 C177.35169219 101.8623303 177.70574871 104.34932778 178.0625 106.8359375 C178.21847656 107.94501465 178.37445313 109.0540918 178.53515625 110.19677734 C178.9364596 113.07066505 178.9364596 113.07066505 180 116 C182.30259599 116.84121507 184.51164412 117.50617245 186.875 118.125 C194.5791503 120.30252938 201.56779548 123.44389923 208.70263672 127.05322266 C209.46592285 127.43397949 210.22920898 127.81473633 211.015625 128.20703125 C211.68883789 128.5522583 212.36205078 128.89748535 213.05566406 129.25317383 C215.27519832 130.23904183 215.27519832 130.23904183 219 130 C221.23429628 128.75605637 221.23429628 128.75605637 223.44140625 127.0078125 C224.27220703 126.38519531 225.10300781 125.76257813 225.95898438 125.12109375 C226.81814453 124.46238281 227.67730469 123.80367188 228.5625 123.125 C230.27189234 121.83561518 231.98151793 120.54653952 233.69140625 119.2578125 C234.82364624 118.39373779 234.82364624 118.39373779 235.97875977 117.51220703 C240.71471988 113.96896063 240.71471988 113.96896063 243.0032196 114.21795654 C246.41916888 115.55582063 248.77144145 118.28245178 251.33203125 120.828125 C251.92803635 121.4141449 252.52404144 122.00016479 253.1381073 122.60394287 C254.39345951 123.84412494 255.64478499 125.08839443 256.89233398 126.33642578 C258.80754482 128.24506183 260.74544801 130.12842846 262.68554688 132.01171875 C263.90250735 133.2198796 265.1180521 134.42946851 266.33203125 135.640625 C266.91523636 136.20227356 267.49844147 136.76392212 268.09931946 137.34259033 C271.99169601 141.30304439 271.99169601 141.30304439 272.03149414 144.64331055 C270.9609138 147.08930155 269.81559805 148.96963635 268.1640625 151.06640625 C267.59429687 151.79923828 267.02453125 152.53207031 266.4375 153.28710938 C265.839375 154.03798828 265.24125 154.78886719 264.625 155.5625 C264.03460938 156.31724609 263.44421875 157.07199219 262.8359375 157.84960938 C261.73412663 159.25789241 260.62858941 160.66327408 259.51806641 162.06469727 C259.01710449 162.70334717 258.51614258 163.34199707 258 164 C257.42991211 164.69593262 256.85982422 165.39186523 256.27246094 166.10888672 C255.85254883 166.7329541 255.43263672 167.35702148 255 168 C255.49153006 170.37009266 255.49153006 170.37009266 257 173 C257.67707314 174.38284753 258.35126692 175.76710657 259.0234375 177.15234375 C259.59300171 178.30802856 259.59300171 178.30802856 260.17407227 179.48706055 C264.43790473 188.18722042 267.79119481 196.53148546 270 206 C272.56216601 206.46026934 275.12463189 206.91866589 277.6875 207.375 C278.83605469 207.57971924 278.83605469 207.57971924 280.0078125 207.78857422 C285.87726359 208.82500599 291.75416601 209.73759273 297.65625 210.5703125 C300 211 300 211 301 212 C301.08855161 214.6662603 301.11524673 217.30647114 301.09765625 219.97265625 C301.09553383 221.16912025 301.09553383 221.16912025 301.09336853 222.38975525 C301.08775316 224.94737435 301.07519812 227.50490718 301.0625 230.0625 C301.05748698 231.79231645 301.05292373 233.52213426 301.04882812 235.25195312 C301.03777875 239.50133553 301.02050386 243.75065312 301 248 C302.65 248 304.3 248 306 248 C306 256.91 306 265.82 306 275 C310.95 276.485 310.95 276.485 316 278 C323.16287943 280.96395011 329.27561818 284.61518213 335.0625 289.77734375 C336.88310781 291.21711597 336.88310781 291.21711597 338.83691406 290.74658203 C341.34182084 289.88202166 343.31654531 288.70897429 345.546875 287.27734375 C346.39121094 286.73916016 347.23554688 286.20097656 348.10546875 285.64648438 C349.41451172 284.80053711 349.41451172 284.80053711 350.75 283.9375 C351.63816406 283.36966797 352.52632813 282.80183594 353.44140625 282.21679688 C355.6307899 280.81606218 357.81679144 279.41033243 360 278 C364.1647776 281.6614514 366.75524755 286.13519726 369.625 290.8125 C372.68130891 295.75012524 375.73310746 300.67245143 379.04296875 305.4453125 C379.74462158 306.46081177 379.74462158 306.46081177 380.46044922 307.49682617 C381.34371938 308.76463305 382.23690747 310.02560303 383.14111328 311.27856445 C386.04025877 315.45968142 386.04025877 315.45968142 385.84985352 318.01513672 C384.73399294 320.62126901 383.49422508 321.32176803 381.0703125 322.76171875 C380.27496094 323.24060547 379.47960937 323.71949219 378.66015625 324.21289062 C377.40525391 324.94282227 377.40525391 324.94282227 376.125 325.6875 C374.88169922 326.43483398 374.88169922 326.43483398 373.61328125 327.19726562 C367.5124454 330.82918487 367.5124454 330.82918487 364 332 C364.20496094 332.59683594 364.40992188 333.19367188 364.62109375 333.80859375 C369.35620254 349.05609717 369.49027182 366.91912677 364 382 C364.66644531 382.22558594 365.33289063 382.45117188 366.01953125 382.68359375 C369.8905649 384.39334256 373.20573841 386.67490985 376.6875 389.0625 C381.21745838 392.24202617 381.21745838 392.24202617 386 395 C385.38248768 397.97783663 384.43729608 400.21455324 382.84765625 402.80078125 C382.40550781 403.52378418 381.96335937 404.24678711 381.5078125 404.99169922 C381.03085937 405.75756348 380.55390625 406.52342773 380.0625 407.3125 C379.57394531 408.10414551 379.08539063 408.89579102 378.58203125 409.71142578 C373.03476293 418.64531571 367.41252246 427.65549962 361 436 C355.88424944 434.29816715 351.64984185 431.32246469 347.1875 428.375 C346.00510742 427.6015625 346.00510742 427.6015625 344.79882812 426.8125 C342.8632648 425.54558583 340.93046058 424.27467036 339 423 C335.12284927 425.17738538 331.37677382 427.360206 327.75 429.9375 C320.88274696 434.56262427 314.17961774 437.63673038 306 439 C306 447.91 306 456.82 306 466 C290.16 466 274.32 466 258 466 C258 457.09 258 448.18 258 439 C256.02 438.67 254.04 438.34 252 438 C242.23576884 435.02758266 233.83807045 429.41680454 226 423 C220.90668078 424.68760677 216.73525605 427.66899341 212.3125 430.625 C210.79053578 431.64218578 209.2659208 432.65542014 207.73828125 433.6640625 C206.73341675 434.33622803 206.73341675 434.33622803 205.70825195 435.02197266 C204 436 204 436 202 436 C200.66235352 434.25024414 200.66235352 434.25024414 199.12890625 431.78515625 C198.55930176 430.87846191 197.98969727 429.97176758 197.40283203 429.03759766 C196.79552246 428.05581543 196.18821289 427.0740332 195.5625 426.0625 C194.30137854 424.05040676 193.03965197 422.03869267 191.77734375 420.02734375 C191.14554199 419.01655762 190.51374023 418.00577148 189.86279297 416.96435547 C187.15695414 412.65841902 184.39600447 408.38918823 181.625 404.125 C180.92032593 403.03844116 180.92032593 403.03844116 180.20141602 401.92993164 C179.13510788 400.28608206 178.06769784 398.64294729 177 397 C180.66497639 392.86212343 185.12034076 390.17520758 189.75 387.25 C190.54277344 386.74339844 191.33554687 386.23679687 192.15234375 385.71484375 C194.09871046 384.47198308 196.04793706 383.23388714 198 382 C197.855625 380.824375 197.71125 379.64875 197.5625 378.4375 C197.47218506 377.69959229 197.38187012 376.96168457 197.28881836 376.20141602 C197.04809625 374.36659667 196.75161216 372.53920157 196.44140625 370.71484375 C195.83997073 365.65320498 195.8944349 360.65411965 195.9375 355.5625 C195.94201172 354.54478516 195.94652344 353.52707031 195.95117188 352.47851562 C195.96287546 349.98565142 195.98080808 347.4928178 196 345 C190.72 346.65 185.44 348.3 180 350 C178.31100226 358.82885184 176.68879999 367.62129133 175.4296875 376.5234375 C175 379 175 379 174 381 C168.03686834 381.02464574 162.07376605 381.042834 156.1105957 381.05493164 C154.08031702 381.05997278 152.05004198 381.06680557 150.01977539 381.07543945 C147.10822653 381.08751467 144.1967255 381.09323034 141.28515625 381.09765625 C139.91485008 381.10539818 139.91485008 381.10539818 138.51686096 381.11329651 C136.34424573 381.11349168 134.17172704 381.06211805 132 381 C130.21357052 379.21357052 130.40403185 376.52509788 130.0625 374.1015625 C129.88976562 372.90015625 129.71703125 371.69875 129.5390625 370.4609375 C129.36117187 369.19507813 129.18328125 367.92921875 129 366.625 C128.64830781 364.1376697 128.29425129 361.65067222 127.9375 359.1640625 C127.78152344 358.05498535 127.62554687 356.9459082 127.46484375 355.80322266 C127.0635404 352.92933495 127.0635404 352.92933495 126 350 C123.69740401 349.15878493 121.48835588 348.49382755 119.125 347.875 C111.4208497 345.69747062 104.43220452 342.55610077 97.29736328 338.94677734 C96.53407715 338.56602051 95.77079102 338.18526367 94.984375 337.79296875 C93.97455566 337.27512817 93.97455566 337.27512817 92.94433594 336.74682617 C90.72480168 335.76095817 90.72480168 335.76095817 87 336 C84.76570372 337.24394363 84.76570372 337.24394363 82.55859375 338.9921875 C81.72779297 339.61480469 80.89699219 340.23742187 80.04101562 340.87890625 C79.18185547 341.53761719 78.32269531 342.19632812 77.4375 342.875 C75.72810766 344.16438482 74.01848207 345.45346048 72.30859375 346.7421875 C71.17635376 347.60626221 71.17635376 347.60626221 70.02124023 348.48779297 C65.28528012 352.03103937 65.28528012 352.03103937 62.9967804 351.78204346 C59.58083112 350.44417937 57.22855855 347.71754822 54.66796875 345.171875 C54.07196365 344.5858551 53.47595856 343.99983521 52.8618927 343.39605713 C51.60654049 342.15587506 50.35521501 340.91160557 49.10766602 339.66357422 C47.19245518 337.75493817 45.25455199 335.87157154 43.31445312 333.98828125 C42.09749265 332.7801204 40.8819479 331.57053149 39.66796875 330.359375 C38.79316109 329.51690216 38.79316109 329.51690216 37.90068054 328.65740967 C34.00830399 324.69695561 34.00830399 324.69695561 33.96850586 321.35668945 C35.0390862 318.91069845 36.18440195 317.03036365 37.8359375 314.93359375 C38.40570313 314.20076172 38.97546875 313.46792969 39.5625 312.71289062 C40.160625 311.96201172 40.75875 311.21113281 41.375 310.4375 C42.26058594 309.30538086 42.26058594 309.30538086 43.1640625 308.15039062 C44.26587337 306.74210759 45.37141059 305.33672592 46.48193359 303.93530273 C46.98289551 303.29665283 47.48385742 302.65800293 48 302 C48.57008789 301.30406738 49.14017578 300.60813477 49.72753906 299.89111328 C50.14745117 299.2670459 50.56736328 298.64297852 51 298 C50.50846994 295.62990734 50.50846994 295.62990734 49 293 C48.32292686 291.61715247 47.64873308 290.23289343 46.9765625 288.84765625 C46.59685303 288.07719971 46.21714355 287.30674316 45.82592773 286.51293945 C41.56209527 277.81277958 38.20880519 269.46851454 36 260 C27.17911826 258.30149902 18.37380117 256.68810587 9.4765625 255.4296875 C7 255 7 255 5 254 C5 242.12 5 230.24 5 218 C3.35 218 1.7 218 0 218 C0 209.09 0 200.18 0 191 C-3.3 190.01 -6.6 189.02 -10 188 C-17.17069523 185.03281577 -23.20818328 181.45112162 -28.8671875 176.125 C-31.00806591 174.71922172 -31.00806591 174.71922172 -33.703125 175.4609375 C-38.03043953 177.48103457 -41.90906709 179.97656345 -45.875 182.625 C-46.65875 183.140625 -47.4425 183.65625 -48.25 184.1875 C-50.17072607 185.45236838 -52.08714347 186.72327503 -54 188 C-58.16497671 184.33837356 -60.7546126 179.86461931 -63.625 175.1875 C-67.94539815 168.22343603 -72.36088215 161.35384151 -77.05322266 154.63354492 C-80 150.32423328 -80 150.32423328 -80 147 C-78.19580078 145.46606445 -78.19580078 145.46606445 -75.6953125 143.86328125 C-74.80199219 143.28642578 -73.90867187 142.70957031 -72.98828125 142.11523438 C-71.57095703 141.22288086 -71.57095703 141.22288086 -70.125 140.3125 C-68.71927734 139.40274414 -68.71927734 139.40274414 -67.28515625 138.47460938 C-60.28886038 134 -60.28886038 134 -58 134 C-58.30744141 133.10474609 -58.30744141 133.10474609 -58.62109375 132.19140625 C-63.66468052 115.95057421 -61.77811174 100.44137041 -59 84 C-59.52956299 83.67725098 -60.05912598 83.35450195 -60.60473633 83.02197266 C-63.00771446 81.55695409 -65.4101129 80.09098755 -67.8125 78.625 C-69.06256836 77.86316406 -69.06256836 77.86316406 -70.33789062 77.0859375 C-71.14033203 76.59609375 -71.94277344 76.10625 -72.76953125 75.6015625 C-73.87711792 74.92601318 -73.87711792 74.92601318 -75.00708008 74.23681641 C-76.6923523 73.19092775 -78.34967999 72.10021334 -80 71 C-79.09031374 66.72004846 -76.9622718 63.45405886 -74.625 59.8125 C-73.96649048 58.77367676 -73.96649048 58.77367676 -73.29467773 57.71386719 C-71.86976318 55.47159291 -70.43580004 53.23531746 -69 51 C-68.50483887 50.22640137 -68.00967773 49.45280273 -67.49951172 48.65576172 C-66.02373442 46.35174694 -64.54431559 44.05013539 -63.0625 41.75 C-62.60246582 41.03561768 -62.14243164 40.32123535 -61.66845703 39.58520508 C-59.54383348 36.30637291 -57.40699099 33.08221948 -55 30 C-49.88424944 31.70183285 -45.64984185 34.67753531 -41.1875 37.625 C-40.39923828 38.140625 -39.61097656 38.65625 -38.79882812 39.1875 C-36.8632648 40.45441417 -34.93046058 41.72532964 -33 43 C-29.12284927 40.82261462 -25.37677382 38.639794 -21.75 36.0625 C-14.88274696 31.43737573 -8.17961774 28.36326962 0 27 C0 18.09 0 9.18 0 0 Z M-6 74 C-6.95326172 74.75023438 -6.95326172 74.75023438 -7.92578125 75.515625 C-16.46193637 83.0107856 -21.21397872 95.2518743 -22.2109375 106.34765625 C-22.75793004 119.62274434 -17.74522246 132.02800205 -8.8125 141.8125 C1.32488659 151.06739088 13.72575241 155.61522268 27.375 155.23828125 C31.37842734 154.8748749 35.11341802 154.01943134 39 153 C37.87548273 150.0280615 36.77706209 147.66559313 35 145 C35.50224156 140.48945284 38.54838869 137.96635726 41.609375 134.88671875 C42.17319885 134.3129097 42.73702271 133.73910065 43.31793213 133.14790344 C44.51103632 131.93963163 45.70822654 130.73538282 46.90917969 129.53491211 C48.74540688 127.69210957 50.55631298 125.8266639 52.3671875 123.95898438 C53.52977527 122.78759701 54.69379132 121.61762509 55.859375 120.44921875 C56.39914978 119.88788742 56.93892456 119.32655609 57.49505615 118.74821472 C59.06152344 117.2097168 59.06152344 117.2097168 62 115 C64.69628906 115.09692383 64.69628906 115.09692383 67 116 C68.485 116.495 68.485 116.495 70 117 C70.72475001 101.13602758 68.14224234 88.26774517 57.19140625 75.96875 C47.1731519 66.47119494 34.4738409 62.46391382 20.91796875 62.69140625 C10.36743797 63.52240519 2.08648948 67.30181049 -6 74 Z M108.99609375 198.37890625 C100.60157236 209.67434216 95.46996013 223.82800568 97 238 C100.04302355 254.82307904 106.75745351 268.36709627 120.8125 278.8125 C133.11045798 286.89673904 147.21585531 290.95067776 161.80078125 288.3125 C177.03174945 285.02742486 190.31744246 277.72585518 199.39453125 264.73828125 C207.55929996 251.99058837 211.03233086 237.02054615 207.86645508 222.16650391 C204.24986623 206.68326362 196.09225579 194.35589761 182.66796875 185.53125 C157.3142682 170.97978497 127.9438519 175.88536879 108.99609375 198.37890625 Z M267 313 C268.12451727 315.9719385 269.22293791 318.33440687 271 321 C270.49775844 325.51054716 267.45161131 328.03364274 264.390625 331.11328125 C263.82680115 331.6870903 263.26297729 332.26089935 262.68206787 332.85209656 C261.48896368 334.06036837 260.29177346 335.26461718 259.09082031 336.46508789 C257.25459312 338.30789043 255.44368702 340.1733361 253.6328125 342.04101562 C252.47022473 343.21240299 251.30620868 344.38237491 250.140625 345.55078125 C249.60085022 346.11211258 249.06107544 346.67344391 248.50494385 347.25178528 C246.93847656 348.7902832 246.93847656 348.7902832 244 351 C241.30371094 350.90307617 241.30371094 350.90307617 239 350 C238.01 349.67 237.02 349.34 236 349 C235.27524999 364.86397242 237.85775766 377.73225483 248.80859375 390.03125 C258.8268481 399.52880506 271.5261591 403.53608618 285.08203125 403.30859375 C295.63256203 402.47759481 303.91351052 398.69818951 312 392 C312.63550781 391.49984375 313.27101563 390.9996875 313.92578125 390.484375 C322.46193637 382.9892144 327.21397872 370.7481257 328.2109375 359.65234375 C328.73507984 346.93181225 324.16925531 335.79503553 316.33984375 325.90234375 C308.1952395 317.14159923 296.66703035 311.85179659 284.8203125 310.6875 C278.60169949 310.56091246 272.99806336 311.40051644 267 313 Z " fill="#FEC34D" transform="translate(103,23)"/>
<path d="M0 0 C2.72067201 1.16256876 4.41703632 2.59588161 6.55102539 4.64404297 C9.52273309 7.46591666 12.37359631 9.69846898 15.86352539 11.83154297 C17.70751953 13.21142578 17.70751953 13.21142578 19.23852539 14.95654297 C19.3581543 16.93725586 19.3581543 16.93725586 18.96508789 19.24169922 C16.61619347 36.43573118 17.05155738 55.09236624 21.23852539 71.95654297 C21.45508789 72.91302734 21.67165039 73.86951172 21.89477539 74.85498047 C23.26944426 80.43548147 25.19878948 85.816493 27.17602539 91.20654297 C27.41683838 91.86855713 27.65765137 92.53057129 27.90576172 93.21264648 C29.17571354 96.57626847 30.57870768 99.6253997 32.44555664 102.70263672 C34.40683042 106.26198544 34.32727091 107.89702828 33.61743164 111.81982422 C31.26825462 125.06724517 35.67384239 140.04854025 43.23852539 150.95654297 C52.56614538 163.30835225 65.51173797 171.04613152 80.76977539 173.63623047 C86.56240756 174.38780616 91.62815574 174.44499326 97.30883789 172.91748047 C107.20357764 170.26442573 113.8440311 169.70513098 123.68774414 172.84326172 C132.52594125 175.61431362 141.75743794 175.23664429 150.92602539 175.26904297 C151.70698578 175.27265839 152.48794617 175.2762738 153.29257202 175.27999878 C165.73356885 175.30316518 177.17130279 174.10286593 189.23852539 170.95654297 C191.23435982 170.59911322 193.2331171 170.2556227 195.23852539 169.95654297 C193.9199165 174.57167409 192.02497102 178.05551909 189.23852539 181.95654297 C190.9493515 185.69840329 193.2188428 189.02105162 195.55102539 192.39404297 C196.11853516 193.23418945 196.11853516 193.23418945 196.69750977 194.09130859 C199.2366329 197.77325195 202.04597194 200.83885677 205.23852539 203.95654297 C207.23852539 206.95654297 207.23852539 206.95654297 207.02056885 208.95976257 C205.68270476 212.37571184 202.95607361 214.72798442 200.41040039 217.28857422 C199.82438049 217.88457932 199.2383606 218.48058441 198.63458252 219.09465027 C197.39440045 220.35000248 196.15013096 221.60132796 194.90209961 222.84887695 C192.99346356 224.76408779 191.11009693 226.70199098 189.22680664 228.64208984 C188.01864579 229.85905031 186.80905689 231.07459507 185.59790039 232.28857422 C185.03625183 232.87177933 184.47460327 233.45498444 183.89593506 234.05586243 C182.26879883 235.6550293 182.26879883 235.6550293 179.23852539 237.95654297 C175.00641425 237.88338247 173.08690277 236.28262822 170.11352539 233.39404297 C166.69452441 230.24331085 163.2313488 227.23815684 159.55102539 224.39404297 C158.6809082 223.71212891 157.81079102 223.03021484 156.91430664 222.32763672 C153.36310068 220.50796768 152.03881403 220.76177266 148.23852539 221.95654297 C145.16049162 223.42578122 142.20685017 225.09138513 139.23852539 226.76904297 C131.39084477 231.07371651 124.02302193 234.03627782 115.23852539 235.95654297 C113.54002441 244.7774247 111.92663126 253.5827418 110.66821289 262.47998047 C110.23852539 264.95654297 110.23852539 264.95654297 109.23852539 266.95654297 C103.27539373 266.98118871 97.31229144 266.99937697 91.34912109 267.01147461 C89.31884241 267.01651575 87.28856737 267.02334854 85.25830078 267.03198242 C82.34675192 267.04405764 79.43525089 267.04977331 76.52368164 267.05419922 C75.15337547 267.06194115 75.15337547 267.06194115 73.75538635 267.06983948 C71.58277112 267.07003465 69.41025243 267.01866101 67.23852539 266.95654297 C65.45209591 265.17011348 65.64255724 262.48164085 65.30102539 260.05810547 C65.12829102 258.85669922 64.95555664 257.65529297 64.77758789 256.41748047 C64.59969727 255.15162109 64.42180664 253.88576172 64.23852539 252.58154297 C63.8868332 250.09421267 63.53277668 247.60721519 63.17602539 245.12060547 C63.02004883 244.01152832 62.86407227 242.90245117 62.70336914 241.75976562 C62.30206579 238.88587792 62.30206579 238.88587792 61.23852539 235.95654297 C58.93592941 235.1153279 56.72688127 234.45037052 54.36352539 233.83154297 C46.65937509 231.65401359 39.67072991 228.51264374 32.53588867 224.90332031 C31.77260254 224.52256348 31.00931641 224.14180664 30.22290039 223.74951172 C29.5496875 223.40428467 28.87647461 223.05905762 28.18286133 222.70336914 C25.96332707 221.71750114 25.96332707 221.71750114 22.23852539 221.95654297 C20.00422911 223.2004866 20.00422911 223.2004866 17.79711914 224.94873047 C16.96631836 225.57134766 16.13551758 226.19396484 15.27954102 226.83544922 C14.42038086 227.49416016 13.5612207 228.15287109 12.67602539 228.83154297 C10.96663305 230.12092778 9.25700746 231.41000345 7.54711914 232.69873047 C6.79229248 233.27478027 6.03746582 233.85083008 5.25976562 234.44433594 C0.52380551 237.98758234 0.52380551 237.98758234 -1.76469421 237.73858643 C-5.18064349 236.40072234 -7.53291606 233.67409118 -10.09350586 231.12841797 C-10.9875135 230.24938812 -10.9875135 230.24938812 -11.89958191 229.3526001 C-13.15493412 228.11241803 -14.4062596 226.86814854 -15.65380859 225.62011719 C-17.56901943 223.71148113 -19.50692262 221.82811451 -21.44702148 219.94482422 C-22.66398196 218.73666337 -23.87952671 217.52707446 -25.09350586 216.31591797 C-25.67671097 215.75426941 -26.25991608 215.19262085 -26.86079407 214.61395264 C-30.75317062 210.65349858 -30.75317062 210.65349858 -30.79296875 207.31323242 C-29.72238841 204.86724142 -28.57707266 202.98690661 -26.92553711 200.89013672 C-26.35577148 200.15730469 -25.78600586 199.42447266 -25.19897461 198.66943359 C-24.60084961 197.91855469 -24.00272461 197.16767578 -23.38647461 196.39404297 C-22.79608398 195.63929688 -22.20569336 194.88455078 -21.59741211 194.10693359 C-20.49560124 192.69865056 -19.39006402 191.29326889 -18.27954102 189.8918457 C-17.7785791 189.2531958 -17.27761719 188.6145459 -16.76147461 187.95654297 C-16.19138672 187.26061035 -15.62129883 186.56467773 -15.03393555 185.84765625 C-14.61402344 185.22358887 -14.19411133 184.59952148 -13.76147461 183.95654297 C-14.25300467 181.58645031 -14.25300467 181.58645031 -15.76147461 178.95654297 C-16.43854774 177.57369544 -17.11274153 176.1894364 -17.78491211 174.80419922 C-18.16462158 174.03374268 -18.54433105 173.26328613 -18.93554688 172.46948242 C-23.19937934 163.76932255 -26.55266942 155.42505751 -28.76147461 145.95654297 C-37.58235634 144.25804199 -46.38767344 142.64464884 -55.28491211 141.38623047 C-57.76147461 140.95654297 -57.76147461 140.95654297 -59.76147461 139.95654297 C-59.78628144 134.93945675 -59.80438513 129.92240662 -59.81640625 124.90527344 C-59.82142025 123.20018898 -59.82823311 121.49510879 -59.83691406 119.79003906 C-59.84910846 117.33250878 -59.85473236 114.87503559 -59.85913086 112.41748047 C-59.86429214 111.66099213 -59.86945343 110.90450378 -59.87477112 110.12509155 C-59.87520791 105.95971734 -59.57804499 102.04222038 -58.76147461 97.95654297 C-48.41179182 95.96429168 -38.30788567 94.44124332 -27.76147461 93.95654297 C-27.65061523 92.79509766 -27.53975586 91.63365234 -27.42553711 90.43701172 C-26.88654874 86.16548196 -25.69058085 82.2738937 -24.13647461 78.26904297 C-23.87721191 77.58422852 -23.61794922 76.89941406 -23.35083008 76.19384766 C-21.07619102 70.37174247 -18.24470247 65.02317405 -15.08178711 59.62841797 C-13.46613164 56.85558201 -13.46613164 56.85558201 -13.76147461 52.95654297 C-15.25162942 50.5288927 -16.75722689 48.29630337 -18.44897461 46.01904297 C-18.8840332 45.41125 -19.3190918 44.80345703 -19.76733398 44.17724609 C-22.49401694 40.4326015 -25.44525862 37.20496579 -28.76147461 33.95654297 C-30.76147461 30.95654297 -30.76147461 30.95654297 -30.54351807 28.95332336 C-29.20565398 25.53737409 -26.47902283 23.18510152 -23.93334961 20.62451172 C-23.34732971 20.02850662 -22.76130981 19.43250153 -22.15753174 18.81843567 C-20.91734967 17.56308346 -19.67308018 16.31175798 -18.42504883 15.06420898 C-16.51641277 13.14899815 -14.63304615 11.21109496 -12.74975586 9.27099609 C-11.54159501 8.05403562 -10.3320061 6.83849087 -9.12084961 5.62451172 C-8.55920105 5.04130661 -7.99755249 4.4581015 -7.41888428 3.85722351 C-3.43913029 -0.05412123 -3.43913029 -0.05412123 0 0 Z " fill="#FEAB03" transform="translate(167.761474609375,137.04345703125)"/>
<path d="M0 0 C1.98 0 3.96 0 6 0 C6 8.91 6 17.82 6 27 C9.3 27.99 12.6 28.98 16 30 C23.16287943 32.96395011 29.27561818 36.61518213 35.0625 41.77734375 C36.88310781 43.21711597 36.88310781 43.21711597 38.83691406 42.74658203 C41.34182084 41.88202166 43.31654531 40.70897429 45.546875 39.27734375 C46.81337891 38.47006836 46.81337891 38.47006836 48.10546875 37.64648438 C48.97816406 37.08251953 49.85085938 36.51855469 50.75 35.9375 C51.63816406 35.36966797 52.52632812 34.80183594 53.44140625 34.21679688 C55.6307899 32.81606218 57.81679144 31.41033243 60 30 C64.1647776 33.6614514 66.75524755 38.13519726 69.625 42.8125 C72.68130891 47.75012524 75.73310746 52.67245143 79.04296875 57.4453125 C79.74462158 58.46081177 79.74462158 58.46081177 80.46044922 59.49682617 C81.34371938 60.76463305 82.23690747 62.02560303 83.14111328 63.27856445 C86.04025877 67.45968142 86.04025877 67.45968142 85.84985352 70.01513672 C84.73399294 72.62126901 83.49422508 73.32176803 81.0703125 74.76171875 C80.27496094 75.24060547 79.47960937 75.71949219 78.66015625 76.21289062 C77.82355469 76.69951172 76.98695313 77.18613281 76.125 77.6875 C75.29613281 78.18572266 74.46726562 78.68394531 73.61328125 79.19726562 C67.5124454 82.82918487 67.5124454 82.82918487 64 84 C64.20496094 84.59683594 64.40992188 85.19367188 64.62109375 85.80859375 C69.35620254 101.05609717 69.49027182 118.91912677 64 134 C64.66644531 134.22558594 65.33289063 134.45117188 66.01953125 134.68359375 C69.8905649 136.39334256 73.20573841 138.67490985 76.6875 141.0625 C81.21745838 144.24202617 81.21745838 144.24202617 86 147 C85.38248768 149.97783663 84.43729608 152.21455324 82.84765625 154.80078125 C82.40550781 155.52378418 81.96335937 156.24678711 81.5078125 156.99169922 C81.03085937 157.75756348 80.55390625 158.52342773 80.0625 159.3125 C79.57394531 160.10414551 79.08539063 160.89579102 78.58203125 161.71142578 C73.03476293 170.64531571 67.41252246 179.65549962 61 188 C55.88424944 186.29816715 51.64984185 183.32246469 47.1875 180.375 C46.00510742 179.6015625 46.00510742 179.6015625 44.79882812 178.8125 C42.8632648 177.54558583 40.93046058 176.27467036 39 175 C35.12284927 177.17738538 31.37677382 179.360206 27.75 181.9375 C20.88274696 186.56262427 14.17961774 189.63673038 6 191 C6 199.91 6 208.82 6 218 C-9.84 218 -25.68 218 -42 218 C-42 209.09 -42 200.18 -42 191 C-43.98 190.67 -45.96 190.34 -48 190 C-57.76423116 187.02758266 -66.16192955 181.41680454 -74 175 C-79.09331922 176.68760677 -83.26474395 179.66899341 -87.6875 182.625 C-89.20946422 183.64218578 -90.7340792 184.65542014 -92.26171875 185.6640625 C-92.93162842 186.11217285 -93.60153809 186.5602832 -94.29174805 187.02197266 C-96 188 -96 188 -98 188 C-99.33764648 186.25024414 -99.33764648 186.25024414 -100.87109375 183.78515625 C-101.44069824 182.87846191 -102.01030273 181.97176758 -102.59716797 181.03759766 C-103.20447754 180.05581543 -103.81178711 179.0740332 -104.4375 178.0625 C-105.69862146 176.05040676 -106.96034803 174.03869267 -108.22265625 172.02734375 C-108.85445801 171.01655762 -109.48625977 170.00577148 -110.13720703 168.96435547 C-112.84304586 164.65841902 -115.60399553 160.38918823 -118.375 156.125 C-119.07967407 155.03844116 -119.07967407 155.03844116 -119.79858398 153.92993164 C-120.86489212 152.28608206 -121.93230216 150.64294729 -123 149 C-119.33502361 144.86212343 -114.87965924 142.17520758 -110.25 139.25 C-109.45722656 138.74339844 -108.66445313 138.23679687 -107.84765625 137.71484375 C-105.90128954 136.47198308 -103.95206294 135.23388714 -102 134 C-102.144375 132.824375 -102.28875 131.64875 -102.4375 130.4375 C-102.52789551 129.70120361 -102.61829102 128.96490723 -102.71142578 128.20629883 C-102.9549446 126.34447177 -103.24913881 124.48937668 -103.5546875 122.63671875 C-104.12113285 118.01074838 -104.14552315 113.46783518 -104.125 108.8125 C-104.13080078 107.47928711 -104.13080078 107.47928711 -104.13671875 106.11914062 C-104.13542969 105.26126953 -104.13414062 104.40339844 -104.1328125 103.51953125 C-104.13168457 102.74714111 -104.13055664 101.97475098 -104.12939453 101.17895508 C-103.99573492 98.92817762 -103.80318108 97.11152153 -103 95 C-100.43792366 93.40719821 -98.02319051 92.09221483 -95.3125 90.8125 C-94.60416016 90.45736328 -93.89582031 90.10222656 -93.16601562 89.73632812 C-85.11705567 85.81961354 -85.11705567 85.81961354 -81 86 C-77.78174278 87.76490042 -75.02069593 89.99135653 -72.1875 92.3125 C-71.41212891 92.92029297 -70.63675781 93.52808594 -69.83789062 94.15429688 C-64.17670187 98.64659627 -64.17670187 98.64659627 -63 101 C-63.0229975 102.75199173 -63.05158304 104.50420379 -63.11694336 106.25512695 C-63.54620688 119.15234211 -60.17403479 129.80206792 -52 140 C-43.13762668 149.00060791 -31.63958158 154.06175021 -19.0625 154.3125 C-5.87241963 154.32698575 4.58878168 149.90234946 14.21875 140.93359375 C22.59919859 132.19353636 26.85268239 121.21939404 27.3125 109.1875 C26.94430612 95.95297551 21.80948393 84.24203624 12.25 75.0625 C7.26914248 70.88402986 2.09673725 68.19519435 -4 66 C-5.01513672 65.63261719 -5.01513672 65.63261719 -6.05078125 65.2578125 C-15.53340197 62.39143025 -25.52085137 63.97941955 -35 66 C-37.07150779 63.46037251 -39.10131646 60.89034079 -41.125 58.3125 C-41.71410156 57.59126953 -42.30320312 56.87003906 -42.91015625 56.12695312 C-44.45758967 54.13349478 -45.8407107 52.24191218 -47 50 C-46.6015625 47.42578125 -46.6015625 47.42578125 -45 45 C-44.14148438 43.35644531 -44.14148438 43.35644531 -43.265625 41.6796875 C-42.94142578 41.07060547 -42.61722656 40.46152344 -42.28320312 39.83398438 C-37.22700226 30.24727462 -33.98295535 20.39514744 -31 10 C-26.584041 9.32858852 -22.16712555 8.66368993 -17.75 8 C-16.49574219 7.80921875 -15.24148438 7.6184375 -13.94921875 7.421875 C-12.74394531 7.24140625 -11.53867187 7.0609375 -10.296875 6.875 C-9.18666992 6.70742188 -8.07646484 6.53984375 -6.93261719 6.3671875 C-4 6 -4 6 0 6 C0 4.02 0 2.04 0 0 Z " fill="#7CB5E7" transform="translate(403,271)"/>
<path d="M0 0 C15.84 0 31.68 0 48 0 C48 8.91 48 17.82 48 27 C49.98 27.33 51.96 27.66 54 28 C63.34737452 31.18427044 72.44823145 36.7160466 80 43 C85.09331922 41.31239323 89.26474395 38.33100659 93.6875 35.375 C95.20946422 34.35781422 96.7340792 33.34457986 98.26171875 32.3359375 C98.93162842 31.88782715 99.60153809 31.4397168 100.29174805 30.97802734 C102 30 102 30 104 30 C105.15405273 31.47436523 105.15405273 31.47436523 106.43359375 33.55859375 C106.9126416 34.32937256 107.39168945 35.10015137 107.88525391 35.89428711 C108.39749512 36.73354736 108.90973633 37.57280762 109.4375 38.4375 C110.51595694 40.17768494 111.59540636 41.91725515 112.67578125 43.65625 C113.22572754 44.54441406 113.77567383 45.43257812 114.34228516 46.34765625 C117.33250109 51.13200174 120.42694268 55.84869745 123.52124023 60.56616211 C123.94993408 61.22366455 124.37862793 61.88116699 124.8203125 62.55859375 C125.38129639 63.41408813 125.38129639 63.41408813 125.95361328 64.28686523 C127.08673488 66.14200155 128.05344776 68.04402391 129 70 C122.13815707 74.89706361 115.14695431 79.52975671 108 84 C108.14363527 85.37523135 108.29003517 86.75017402 108.4375 88.125 C108.51871094 88.89070313 108.59992188 89.65640625 108.68359375 90.4453125 C108.90190236 92.20795237 109.18625113 93.96322412 109.5234375 95.70703125 C110.14590588 100.00818572 110.18414338 104.22239586 110.1875 108.5625 C110.19974609 109.39974609 110.21199219 110.23699219 110.22460938 111.09960938 C110.24504315 119.70222936 110.24504315 119.70222936 108 123 C105.37662559 124.9323094 102.5878005 126.40183149 99.6875 127.875 C98.92759766 128.29007813 98.16769531 128.70515625 97.38476562 129.1328125 C94.35835177 130.71043918 91.90433362 131.95387479 88.47265625 132.12890625 C84.50061944 130.31544869 81.19075389 127.7266089 77.75 125.0625 C77.0178125 124.51142578 76.285625 123.96035156 75.53125 123.39257812 C70.14342979 119.28685957 70.14342979 119.28685957 69 117 C69.0229975 115.24800827 69.05158304 113.49579621 69.11694336 111.74487305 C69.54620688 98.84765789 66.17403479 88.19793208 58 78 C49.13762668 68.99939209 37.63958158 63.93824979 25.0625 63.6875 C11.87241963 63.67301425 1.41121832 68.09765054 -8.21875 77.06640625 C-16.59919859 85.80646364 -20.85268239 96.78060596 -21.3125 108.8125 C-20.95670029 121.60152307 -16.12667609 133.48342718 -6.8125 142.375 C4.07101494 151.27463743 16.1145949 154.9850492 30 154 C33.6988322 153.46700058 37.34812298 152.7911223 41 152 C43.07150779 154.53962749 45.10131646 157.10965921 47.125 159.6875 C47.71410156 160.40873047 48.30320313 161.12996094 48.91015625 161.87304688 C50.45744017 163.86631264 51.8401262 165.75868114 53 168 C52.60546875 170.55859375 52.60546875 170.55859375 51 173 C50.41605469 174.14210937 49.83210937 175.28421875 49.23046875 176.4609375 C48.90119385 177.09032227 48.57191895 177.71970703 48.23266602 178.36816406 C43.26575348 187.90519303 39.56821843 197.53468675 37 208 C33.06768872 208.57236003 29.13498705 209.14194927 25.2019043 209.70898438 C23.86422917 209.90223474 22.52666276 210.09623922 21.18920898 210.29101562 C19.26575068 210.57099916 17.34186448 210.84803815 15.41796875 211.125 C14.26063232 211.29257813 13.1032959 211.46015625 11.91088867 211.6328125 C9 212 9 212 6 212 C6 213.98 6 215.96 6 218 C4.02 218 2.04 218 0 218 C0 209.09 0 200.18 0 191 C-3.3 190.01 -6.6 189.02 -10 188 C-17.17069523 185.03281577 -23.20818328 181.45112162 -28.8671875 176.125 C-31.00806591 174.71922172 -31.00806591 174.71922172 -33.703125 175.4609375 C-38.03043953 177.48103457 -41.90906709 179.97656345 -45.875 182.625 C-46.65875 183.140625 -47.4425 183.65625 -48.25 184.1875 C-50.17072607 185.45236838 -52.08714347 186.72327503 -54 188 C-58.16497671 184.33837356 -60.7546126 179.86461931 -63.625 175.1875 C-67.94539815 168.22343603 -72.36088215 161.35384151 -77.05322266 154.63354492 C-80 150.32423328 -80 150.32423328 -80 147 C-78.19580078 145.46606445 -78.19580078 145.46606445 -75.6953125 143.86328125 C-74.80199219 143.28642578 -73.90867187 142.70957031 -72.98828125 142.11523438 C-71.57095703 141.22288086 -71.57095703 141.22288086 -70.125 140.3125 C-68.71927734 139.40274414 -68.71927734 139.40274414 -67.28515625 138.47460938 C-60.28886038 134 -60.28886038 134 -58 134 C-58.30744141 133.10474609 -58.30744141 133.10474609 -58.62109375 132.19140625 C-63.66468052 115.95057421 -61.77811174 100.44137041 -59 84 C-59.52956299 83.67725098 -60.05912598 83.35450195 -60.60473633 83.02197266 C-63.00771446 81.55695409 -65.4101129 80.09098755 -67.8125 78.625 C-69.06256836 77.86316406 -69.06256836 77.86316406 -70.33789062 77.0859375 C-71.14033203 76.59609375 -71.94277344 76.10625 -72.76953125 75.6015625 C-73.87711792 74.92601318 -73.87711792 74.92601318 -75.00708008 74.23681641 C-76.6923523 73.19092775 -78.34967999 72.10021334 -80 71 C-79.09031374 66.72004846 -76.9622718 63.45405886 -74.625 59.8125 C-73.96649048 58.77367676 -73.96649048 58.77367676 -73.29467773 57.71386719 C-71.86976318 55.47159291 -70.43580004 53.23531746 -69 51 C-68.50483887 50.22640137 -68.00967773 49.45280273 -67.49951172 48.65576172 C-66.02373442 46.35174694 -64.54431559 44.05013539 -63.0625 41.75 C-62.60246582 41.03561768 -62.14243164 40.32123535 -61.66845703 39.58520508 C-59.54383348 36.30637291 -57.40699099 33.08221948 -55 30 C-49.88424944 31.70183285 -45.64984185 34.67753531 -41.1875 37.625 C-40.39923828 38.140625 -39.61097656 38.65625 -38.79882812 39.1875 C-36.8632648 40.45441417 -34.93046058 41.72532964 -33 43 C-29.12284927 40.82261462 -25.37677382 38.639794 -21.75 36.0625 C-14.88274696 31.43737573 -8.17961774 28.36326962 0 27 C0 18.09 0 9.18 0 0 Z " fill="#8AB954" transform="translate(103,23)"/>
<path d="M0 0 C2.35975232 1.75037811 4.23699013 3.37084457 6.2734375 5.44140625 C6.84204498 6.0019017 7.41065247 6.56239716 7.99649048 7.13987732 C9.19213539 8.32707437 10.38019367 9.52195476 11.56103516 10.72387695 C13.3677787 12.55518054 15.20646838 14.34920904 17.05078125 16.14257812 C18.21042894 17.30259634 19.36805236 18.46464244 20.5234375 19.62890625 C21.3482814 20.42779015 21.3482814 20.42779015 22.18978882 21.24281311 C24.97339083 24.13104142 25.96967258 25.7421836 26.44384766 29.77319336 C26 33 26 33 24.375 35 C21.06193069 36.39497655 19.45532471 36.00088132 16 35 C13.62064677 33.21061675 11.64369024 31.1181839 9.625 28.9375 C9.07972656 28.36966797 8.53445312 27.80183594 7.97265625 27.21679688 C6.63675147 25.82229978 5.31673412 24.41261282 4 23 C7.4831845 75.81963356 27.42897426 122.70737105 64 161 C64.87269531 161.92554688 65.74539062 162.85109375 66.64453125 163.8046875 C103.68420608 202.09167203 155.66176759 221.57993846 208.1015625 224.1784668 C209.76832031 224.27575073 209.76832031 224.27575073 211.46875 224.375 C212.96051758 224.44847656 212.96051758 224.44847656 214.48242188 224.5234375 C217.36139445 225.06840981 218.33510858 225.61208586 220 228 C220.3125 231.5625 220.3125 231.5625 220 235 C216.98687282 238.01312718 214.12724172 237.29098763 210.00292969 237.3293457 C208.36179199 237.32100708 208.36179199 237.32100708 206.6875 237.3125 C205.56118164 237.30758545 204.43486328 237.3026709 203.27441406 237.29760742 C158.00127027 236.67572358 112.26808688 219.10266865 77 191 C76.12601562 190.31808594 75.25203125 189.63617188 74.3515625 188.93359375 C63.51523656 180.3058445 52.65933492 170.85853108 44 160 C43.17371094 158.98808594 42.34742187 157.97617187 41.49609375 156.93359375 C10.02902932 118.00136989 -6.13805526 72.69713103 -10 23 C-10.78503906 23.85464844 -11.57007812 24.70929688 -12.37890625 25.58984375 C-13.43927592 26.70651624 -14.50052057 27.82235831 -15.5625 28.9375 C-16.33303711 29.78344727 -16.33303711 29.78344727 -17.11914062 30.64648438 C-20.01819675 33.65357986 -21.58699176 34.89276428 -25.74609375 35.97265625 C-29 36 -29 36 -31.5 34.5 C-33.64941752 30.91763747 -32.99633795 29.00484136 -32 25 C-30.28479454 22.76156433 -28.74161902 21.01110911 -26.72265625 19.1015625 C-26.19610947 18.58113373 -25.66956268 18.06070496 -25.12705994 17.52450562 C-23.45248054 15.87672531 -21.75793313 14.25128586 -20.0625 12.625 C-18.92641671 11.51045613 -17.79163623 10.39458262 -16.65820312 9.27734375 C-6.38577598 -0.7868887 -6.38577598 -0.7868887 0 0 Z " fill="#4D6474" transform="translate(42,242)"/>
<path d="M0 0 C1.64162109 0.00845947 1.64162109 0.00845947 3.31640625 0.01708984 C4.445625 0.02272949 5.57484375 0.02836914 6.73828125 0.03417969 C52.02784521 0.67735263 97.69437279 18.19389531 133.00390625 46.32958984 C133.87789062 47.01150391 134.751875 47.69341797 135.65234375 48.39599609 C146.48866969 57.02374534 157.34457133 66.47105876 166.00390625 77.32958984 C167.24333984 78.84746094 167.24333984 78.84746094 168.5078125 80.39599609 C188.66257503 105.33221881 203.41994928 133.39354966 212.00390625 164.32958984 C212.19823242 165.02971191 212.39255859 165.72983398 212.59277344 166.45117188 C216.82262869 182.09720715 218.63535794 198.21285263 220.00390625 214.32958984 C221.18146484 213.04761719 221.18146484 213.04761719 222.3828125 211.73974609 C223.44318217 210.62307361 224.50442682 209.50723153 225.56640625 208.39208984 C226.08009766 207.828125 226.59378906 207.26416016 227.12304688 206.68310547 C230.022103 203.67600998 231.59089801 202.43682556 235.75 201.35693359 C239.00390625 201.32958984 239.00390625 201.32958984 241.50390625 202.82958984 C243.65332377 206.41195237 243.0002442 208.32474848 242.00390625 212.32958984 C240.28870079 214.56802551 238.74552527 216.31848073 236.7265625 218.22802734 C236.20001572 218.74845612 235.67346893 219.26888489 235.13096619 219.80508423 C233.45638679 221.45286453 231.76183938 223.07830398 230.06640625 224.70458984 C228.93032296 225.81913371 227.79554248 226.93500723 226.66210938 228.05224609 C217.40325247 237.12345067 217.40325247 237.12345067 213.27099609 237.73217773 C208.84676764 237.18700118 206.73175282 234.93974481 203.73046875 231.88818359 C203.16186127 231.32768814 202.59325378 230.76719269 202.00741577 230.18971252 C200.81177086 229.00251548 199.62371258 227.80763508 198.44287109 226.60571289 C196.63612755 224.77440931 194.79743787 222.9803808 192.953125 221.18701172 C191.79347731 220.02699351 190.63585389 218.8649474 189.48046875 217.70068359 C188.93057281 217.16809433 188.38067688 216.63550507 187.81411743 216.08677673 C185.03051542 213.19854843 184.03423367 211.58740624 183.56005859 207.55639648 C184.00390625 204.32958984 184.00390625 204.32958984 185.62890625 202.32958984 C188.94197556 200.93461329 190.54858154 201.32870853 194.00390625 202.32958984 C196.38325948 204.1189731 198.36021601 206.21140594 200.37890625 208.39208984 C200.92417969 208.95992187 201.46945312 209.52775391 202.03125 210.11279297 C203.36715478 211.50729006 204.68717213 212.91697702 206.00390625 214.32958984 C202.92289777 167.60862551 187.39602123 122.76462872 156.00390625 87.32958984 C155.30265625 86.52005859 154.60140625 85.71052734 153.87890625 84.87646484 C143.81221923 73.44358459 133.21863822 63.40662714 121.00390625 54.32958984 C120.17503906 53.70568359 119.34617187 53.08177734 118.4921875 52.43896484 C84.84520869 27.98920774 45.69879191 15.98579987 4.54370117 13.40454102 C3.80220322 13.35348709 3.06070526 13.30243317 2.29673767 13.24983215 C0.26266519 13.11108541 -1.7724685 12.98815894 -3.80761719 12.86621094 C-6.99609375 12.32958984 -6.99609375 12.32958984 -8.92285156 11.00390625 C-10.72923853 8.18584396 -10.29005294 5.5631409 -9.99609375 2.32958984 C-6.98315061 -0.6833533 -4.12403321 0.0386956 0 0 Z " fill="#4E6474" transform="translate(259.99609375,32.67041015625)"/>
</svg>
